<svg xmlns="http://www.w3.org/2000/svg" width="120" height="82"><style type="text/css">.st0{fill:#262626;} .st1{fill:#999999;} .st2{fill:none;stroke:#000000;stroke-width:0.75;stroke-linecap:round;stroke-linejoin:round;stroke-miterlimit:3;}</style><path d="M111.8 7.3l-.4 4 3.4 2c1.2.6 1.5 2.1 1.1 4.5-.3 3.9-1.2 6-2.7 6.3 1 4.3.8 8.4-.6 12.2l-3 9.6-3-9.6c-1.4-3.8-1.6-7.9-.6-12.2-1.5-.4-2.5-2.5-2.7-6.3-.4-2.4 0-3.9 1.1-4.5l3.4-2-.6-3.9c-.2-1.8.5-2.7 2.1-2.8 1.4-.1 2.3.8 2.5 2.7zm-2.4-3.9L106.2.2h6.5l-3.3 3.2zm-40.8 6.8l-3.3 5.9h7.2l-3.3-5.9s-.6 0-.6 0zM35.4 27l2.7-4.9h3.2l-3.9 6.5h-4.6l-2-4.8-2 4.8h-4.6l-3.7-6.5h3.1l2.7 4.9h.5l2.2-4.9h3.6l2.3 4.9h.5zm15.5-.9L49 23.6h-.6l-1.9 2.5h4.4zm-6.3 2.5h-3.5l5.3-6.5h4.7l5.2 6.5h-3.4l-.9-1h-6.6l-.8 1zm18.7-9h-1.6l6-10.6H70l6 10.6h-1.6l-1.3-2.2h-8.6l-1.2 2.2zm-5 2.5h7.3c1.7 0 2.7 0 3.1 0 .3 0 .7.1 1 .2.4.1.6.4.8.6.1.3.2.7.2 1.2s0 .8-.1 1c-.1.2-.3.4-.5.5-.3.1-.7.3-1.2.3.6 0 1.1.1 1.4.4.2.1.3.3.3.5s0 .5 0 1.1v.6h-3v-.4c0-.4 0-.6 0-.8 0-.1-.1-.3-.2-.4-.2.2-.4.1-.6.1-.2 0-.6 0-1.2 0h-4.3v1.6h-3v-6.5zm9.2 1.9c0-.1-.2-.2-.3-.2-.1 0-.2 0-.4 0-.1 0-.6 0-1.3 0h-4.2v1.6h4.2c.7 0 1.2 0 1.4 0 .1 0 .3 0 .4 0 .1 0 .2-.1.3-.3 0-.1.1-.3.1-.5-.1-.3-.2-.5-.2-.6zm33.3-15v1.2h-9v3.2h8.6v1.2h-8.6v3.6h9v1.2H90.4V9h10.4zM82.3 9c.7 0 1.5 0 2.5 0 .9 0 1.5.1 1.8.1.7.1 1.2.4 1.7.8.2.3.4.5.5.9.1.4.2.8.2 1.5h-1.5c0-.8-.1-1.3-.4-1.5-.1-.1-.3-.2-.6-.3-.3 0-.7-.1-1.2-.2-.8 0-1.7 0-2.8 0-1.5 0-2.6 0-3.2.1s-1.1.2-1.3.4c-.2.2-.3.5-.4 1-.1.5-.1 1.2-.1 2.3 0 1.6 0 2.6.2 3.1.1.3.2.5.4.7.2.1.5.2.8.3.7.1 2.2.2 4.6.2 1.3 0 2.2 0 2.9-.2.5-.1.9-.3 1.1-.6.1-.3.2-1 .2-2.1h-5.5v-1.4h7c0 1.6 0 2.7-.1 3.2s-.3 1-.5 1.2-.6.5-1 .6c-.6.2-2.1.3-4.4.3-2.1 0-3.6 0-4.5-.2-.8-.1-1.3-.5-1.7-1-.4-.6-.6-2-.6-4.1 0-1.5.1-2.6.3-3.5.2-.8.7-1.3 1.5-1.5s1.9-.1 4.1-.1zm-6.1 18h4.2c.8 0 1.4 0 1.7 0 .4 0 .6-.1.8-.2.1-.1.3-.2.4-.5 0-.2.1-.5.1-.9s0-.7-.1-.9c0-.2-.1-.4-.3-.5-.2-.1-.4-.2-.7-.2-.3 0-1 0-1.9 0h-4.2V27zm-3-4.9h7.2c1.3 0 2.1 0 2.5 0 .4 0 .8 0 1.2.1 1 .1 1.6.5 2 1.1.1.2.2.5.2.7s.1.6.1 1.2 0 1-.1 1.3c0 .3-.1.5-.2.8-.3.5-.9.9-1.8 1-.5 0-.9.1-1.4.1-.5 0-1.3 0-2.4 0h-7.2l-.1-6.3zm21.3 1.4c-1.3 0-2.1 0-2.4.1-.3 0-.4.2-.4.5 0 .2.1.4.4.4.2 0 1.3.1 3.2.1 1.6 0 2.7 0 3.2.1.5 0 1 .1 1.3.2.4.1.6.4.8.6.1.3.2.6.2 1.1 0 .6-.1 1.1-.4 1.4-.2.2-.5.4-.8.5-.4.1-.8.2-1.5.2s-1.9 0-3.6 0c-1.5 0-2.6 0-3.3 0-.7 0-1.2-.1-1.6-.3-.4-.1-.6-.3-.8-.5-.1-.2-.2-.6-.2-1v-.3h3c0 .3.1.5.3.6.1 0 .3.1.6.1.2 0 1 0 2.2 0 1.3 0 2.1 0 2.3 0 .3 0 .5 0 .6-.1.2 0 .3-.2.3-.5 0-.2-.1-.3-.2-.4-.2 0-.5-.1-1-.1-.4 0-1.2 0-2.4 0s-2.1 0-2.4 0c-.7 0-1.3 0-1.7-.1s-.7-.2-.9-.4c-.4-.3-.6-.8-.6-1.4 0-.7.2-1.2.6-1.5.3-.2.8-.4 1.5-.5s2.1-.1 4.1-.1c1.5 0 2.5 0 3.1 0 .9.1 1.5.3 1.9.5.3.3.5.7.5 1.3 0 0 0 .1 0 .3h-3c0-.2 0-.3-.1-.4 0-.1-.1-.1-.2-.2-.1 0-.4-.1-.7-.1-.1-.1-.8-.1-1.9-.1zm5.7 10.9c0 .2.1.5.1.9 0 .6 0 1.1-.1 1.3-.1.2-.2.3-.4.4-.2.1-.5.1-.9.2-.4 0-1 0-1.8 0-.6 0-1 0-1.3 0-.3 0-.5-.1-.7-.2-.1-.1-.2-.2-.2-.3 0-.1-.1-.3-.1-.5h.8c0 .1 0 .3 0 .3s0 .1.1.2c.1 0 .2 0 .4 0s.5 0 1 0c.7 0 1.1 0 1.5 0 .3 0 .5-.1.7-.1 0 0 0-.1.1-.1s.1-.1.1-.3c0-.2 0-.4 0-.6 0 0 0-.1 0-.1 0 .1-.1.2-.3.3-.1 0-.3.1-.6.1-.2 0-.6 0-1.1 0-.6 0-1.1 0-1.4 0s-.5 0-.7-.1c-.2-.1-.4-.2-.4-.4-.1-.1-.1-.4-.1-.6 0-.3.1-.5.2-.7.1-.1.2-.2.4-.2s.4-.1.7-.1c.4 0 .9 0 1.5 0 .8 0 1.4 0 1.8 0 .3 0 .5.1.7.3-.1 0 0 .1 0 .3zm-.9-.1c0-.1-.2-.1-.4-.2-.2 0-.5 0-1.1 0-.9 0-1.5 0-1.8 0-.2 0-.3.1-.4.1-.1 0-.1.2-.1.4 0 .3 0 .4.2.5.1 0 .2.1.5.1.2 0 .7 0 1.5 0 .5 0 .8 0 1 0 .2 0 .3 0 .5-.1.1 0 .2-.1.2-.2 0 0 0-.1 0-.3 0-.1 0-.2-.1-.3zm-6.4 2.8h-.8v-3H92l-1.6 1-.5-.4 1.8-1.2h1.2v3.6zm-4.4-.7c-.1.3-.3.5-.6.6-.2 0-.5.1-.8.1-.4 0-.9 0-1.5 0-.8 0-1.5 0-1.9-.1-.5-.1-.8-.3-.9-.7 0-.2-.1-.5-.1-1s0-.8.1-1c.1-.3.4-.5.8-.6.4 0 1-.1 1.8-.1 1 0 1.6 0 2.1.1.4 0 .6.1.7.4.1.1.2.3.2.5s0 .5 0 .8c.2.4.2.7.1 1zM87 34.1c-.3 0-.8 0-1.4 0-.5 0-1 0-1.2 0-.3 0-.4 0-.5.1-.1 0-.1.2-.2.5 0 .2 0 .5 0 .7 0 .6.1 1 .2 1 .1.1.7.1 1.7.1.6 0 1.1 0 1.4 0 .3 0 .5-.1.6-.1.1-.1.2-.5.2-1 0-.4 0-.6 0-.8 0-.2-.1-.3-.1-.4-.2 0-.4 0-.7-.1zm-5.2 0c.1.1.1.3.1.6 0 .2 0 .4-.1.5 0 .1-.1.2-.3.3-.1.1-.3.1-.5.2-.2 0-.4.1-.7.1-.5 0-1.2 0-2.1.1-.3 0-.5 0-.7.1-.1 0-.2.1-.3.1 0 .1-.1.3-.1.5h4.7v.5h-5.5c0-.2 0-.3 0-.4 0-.4 0-.6.2-.8.1-.1.2-.2.4-.3.1 0 .4-.1.7-.2.1 0 .7 0 1.5-.1.5 0 .9 0 1.1 0 .2 0 .4 0 .5-.1.1 0 .2-.1.2-.1 0-.1.1-.2.1-.3 0-.3-.1-.5-.3-.5-.2-.1-.8-.1-1.7-.1-.3 0-.6 0-.9 0-.3 0-.5 0-.6 0-.1 0-.2 0-.3.1 0 0-.1.1-.1.2 0 0 0 .2 0 .5h-.8c0-.3 0-.5 0-.7 0-.1.1-.2.2-.3.1-.1.3-.2.4-.2.1 0 .4-.1.6-.1.3 0 .7 0 1.3 0 .3 0 .7 0 1.1 0 .4 0 .7 0 .8 0 .2 0 .4.1.6.2.3 0 .4.1.5.2zm-9.6.2c0-.1-.2-.1-.5-.1-.2 0-.6 0-1.1 0-.6 0-1.1 0-1.4 0-.3 0-.5 0-.6.1-.1.1-.1.2-.1.4 0 .1 0 .2 0 .3 0 0 .1.1.2.1.3 0 .7.1 1.3.1.2 0 .8 0 1.6 0 .4 0 .6 0 .9.1.2 0 .4.1.5.2.2.1.2.4.2.6 0 .3 0 .5-.2.6-.2.2-.5.3-.9.4-.4 0-1.1.1-2.1.1-.5 0-1 0-1.2 0-.3 0-.5 0-.6-.1s-.3-.2-.4-.3c-.1-.1-.1-.3-.1-.5 0 0 0-.1 0-.2h.8s0 .1 0 .1c0 .2 0 .3.1.4 0 0 .1.1.2.1.2 0 .7.1 1.7.1.7 0 1.2 0 1.5-.1.3 0 .5-.2.5-.5 0-.1 0-.2-.1-.3 0 0-.1-.1-.2-.1s-.3 0-.5 0-.9 0-2.1 0c-.4 0-.7 0-1-.1-.2 0-.5-.1-.6-.2-.1-.1-.2-.4-.2-.7 0-.3.1-.6.4-.7.1-.1.3-.1.4-.2.1 0 .4 0 .6 0 .4 0 .9 0 1.5 0 .5 0 1 0 1.3 0 .3 0 .5.1.7.2.1.1.2.2.3.3 0 .1.1.3.1.5h-.9v-.1c0-.3 0-.5 0-.5zm10.2 28.8c.2.3.4.7.4 1.3v2.9h-1.4V65c0-.2 0-.4 0-.5s0-.3-.1-.4c0-.1-.1-.2-.2-.2s-.2-.1-.4-.1c-.1 0-.2 0-.4.1-.1 0-.2.1-.4.2v3.2h-1.4V61H80v2.2c.2-.2.5-.3.7-.5.2-.1.5-.1.7-.1.4.1.8.2 1 .5zm3.4.4c-.3 0-.5.1-.6.2-.1.1-.2.4-.2.7h1.7c0-.3-.1-.5-.2-.7-.3-.1-.5-.2-.7-.2zm1.7-.3c.4.4.5.9.5 1.6v.5h-3.1c0 .2 0 .4.1.5.1.1.2.2.3.4.1.1.3.1.4.2.2 0 .4 0 .5 0 .2 0 .3 0 .5 0s.3-.1.5-.1c.1 0 .2-.1.3-.2.1 0 .2-.1.2-.1h.1v1.1c-.1 0-.2.1-.3.1-.1 0-.2.1-.4.1-.1 0-.3 0-.5.1-.2 0-.4 0-.6 0-.9 0-1.5-.2-2-.6-.5-.4-.7-1-.7-1.7s.2-1.3.6-1.8c.4-.5 1-.6 1.8-.6.9-.1 1.4.1 1.8.5zm-10.8-1.7v1.3H78v1h-1.4v1.6c0 .2 0 .3 0 .5 0 .1 0 .2.1.3 0 .1.1.2.2.2s.2.1.4.1c.1 0 .2 0 .3 0 .1 0 .2 0 .2-.1h.1v1c-.1 0-.3.1-.5.1s-.4 0-.6 0c-.5 0-1-.1-1.3-.4-.3-.2-.4-.6-.4-1.1v-2.1h-.5v-1h.5v-1.3l1.6-.1zm-4.2-.4v1h-.1s-.1 0-.2-.1c-.1 0-.2 0-.3 0-.3 0-.5 0-.6.1-.1.1-.1.3-.1.6h1.1v1h-1v3.6h-1.4v-3.6h-.5v-1h.5v-.1c0-.5.1-1 .4-1.2.3-.3.7-.4 1.3-.4.2 0 .4 0 .6 0 0 0 .2.1.3.1zm29 1.8c.1 0 .4-.1.7-.1.3 0 .6-.1 1-.1.8 0 1.3.1 1.7.4.4.3.5.6.5 1.2v3.1H104v-.5c-.1.1-.2.1-.2.2-.1 0-.2.1-.3.2-.1 0-.3.1-.4.1-.1 0-.3 0-.5 0-.4 0-.7-.1-1-.4-.3-.3-.4-.6-.4-1 0-.3.1-.6.2-.8s.3-.4.6-.5c.3-.1.5-.2.9-.3.4 0 .7-.1 1.1-.1 0-.2-.1-.4-.3-.5-.2-.1-.5-.2-.8-.2-.2 0-.4 0-.6.1-.2 0-.5.1-.6.2h-.1l-.1-1zm-3 .6c-.3 0-.5.1-.6.2s-.2.4-.2.7h1.7c0-.3-.1-.5-.2-.7-.2-.1-.4-.2-.7-.2zm-.7 2.3c.1.1.2.2.3.4.1.1.3.1.4.2.2 0 .4 0 .5 0s.3 0 .5 0 .3-.1.5-.1c.1 0 .2-.1.3-.2.1 0 .2-.1.2-.1h.1v1c-.1 0-.2.1-.3.1-.1 0-.2.1-.4.1-.1 0-.3 0-.5.1-.2 0-.4 0-.6 0-.9 0-1.5-.2-2-.6-.5-.4-.7-1-.7-1.7s.2-1.3.6-1.8 1-.6 1.8-.6c.7 0 1.2.2 1.5.6.4.4.5.9.5 1.6v.5h-3.1c.3.2.3.4.4.5zm5.6-.6c-.1 0-.3 0-.5.1-.1 0-.2.1-.3.2-.1.1-.1.2-.1.4s0 .4.2.5c.1.1.3.1.5.1.1 0 .2 0 .4-.1.1 0 .2-.1.4-.2v-.9c-.3-.1-.5-.1-.6-.1zm-7.3-3.9L94 64.8v2.5h-1.5v-2.4l-2.1-3.6h1.7l1.1 2.1 1.1-2.1h1.8zm10.3 1.5h1.4v.6s.1-.1.3-.2c.1-.1.2-.2.3-.2.1 0 .2-.1.4-.2.1 0 .3 0 .4 0 0 0 .1 0 .1 0s.1 0 .2 0v1.3h-.1s-.1 0-.2 0-.2 0-.4 0c-.1 0-.3 0-.5.1-.2 0-.3.1-.5.1v3h-1.4v-4.5zM66.8 35.6h-4v1.1H67v.5h-4.9v-3.5H67v.5h-4.1v1h4v.4zM61 37.1h-.8v-3.5h.8v3.5zm-1.9-3c.1.2.2.4.2.6 0 .2 0 .4 0 .5 0 .1-.1.2-.2.3-.1.1-.3.1-.5.1.2 0 .3 0 .5.2.1.1.1.2.2.3 0 .1 0 .3 0 .6v.5h-.8v-.4c0-.3 0-.5 0-.5 0-.2-.2-.3-.5-.4-.1 0-.2 0-.3 0-.1 0-.4 0-1 0h-2.3v1.3h-.8v-3.5h3c.9 0 1.4 0 1.7 0 .4 0 .6.1.8.4zm-.9.2c-.1 0-.2-.1-.5-.1-.2 0-.6 0-1.2 0h-2.3v1.2h2.3c.6 0 1 0 1.2 0 .2 0 .3 0 .5-.1.1 0 .2-.2.2-.5 0-.4 0-.5-.2-.5zm-5.7.4c0 .2 0 .4 0 .5 0 .1-.1.2-.2.3-.1.1-.3.1-.5.1.2 0 .3 0 .5.2.1.1.1.2.2.3 0 .1 0 .3 0 .6v.5h-.8v-.4c0-.3 0-.5 0-.5 0-.2-.2-.3-.5-.4-.1 0-.2 0-.3 0s-.4 0-1 0h-2.3v1.3h-.8v-3.5h3c.9 0 1.4 0 1.6 0 .4 0 .7.2.9.4.2.1.2.3.2.6zm-1-.4c-.1 0-.2-.1-.5-.1-.2 0-.6 0-1.2 0h-2.3v1.2h2.3c.6 0 1 0 1.2 0 .2 0 .3 0 .5-.1.1 0 .2-.2.2-.5s-.1-.5-.2-.5zm-5.7 1.1c0 .4 0 .7 0 1 0 .2-.2.4-.4.5-.1.1-.4.2-.7.2-.3 0-.9 0-1.6 0-.4 0-.8 0-1.2 0-.5 0-.7 0-.9 0-.2 0-.5 0-.6-.1-.1 0-.3-.1-.3-.2-.2-.1-.4-.3-.4-.5s0-.5 0-1 0-1 .2-1.2c.1-.3.4-.4.9-.5.4 0 1.1 0 2.2 0 .8 0 1.4 0 1.8 0 .4 0 .6.1.8.2.1.1.2.2.3.3 0 .1.1.2.1.4-.3.3-.2.6-.2.9zm-.9-1c0-.1-.2-.2-.5-.2-.2 0-.4 0-.6 0-.2 0-.7 0-1.4 0s-1.2 0-1.5 0c-.2 0-.3 0-.4.1-.1 0-.1.1-.2.2 0 .2 0 .5 0 .8 0 .4 0 .6 0 .8 0 .1.1.3.2.3 0 0 .1 0 .2.1.1 0 .3 0 .5 0 .4 0 .9 0 1.5 0 .8 0 1.4 0 1.8-.1.2 0 .3-.1.4-.3 0-.2.1-.5.1-.9-.1-.3-.1-.6-.1-.8zm-6-.3h-2.5v3h-.8v-3h-2.5v-.5h5.7l.1.5zM48.1 61v6.2h-1.4v-.5c-.1.1-.2.2-.3.2-.1.1-.2.1-.3.2-.1 0-.2.1-.3.1-.1 0-.2 0-.4 0-.5 0-.9-.2-1.2-.6-.3-.4-.5-1-.5-1.7 0-.4 0-.7.2-1 .1-.3.2-.5.4-.8.1-.2.4-.4.6-.5.2-.1.5-.2.7-.2.2 0 .4 0 .6 0 .1 0 .3.1.5.3v-2l1.4.3zm-2.7 3.1c-.2.2-.3.5-.3 1s0 .8.2 1c.1.2.4.3.6.3.1 0 .2 0 .4-.1.1 0 .3-.1.4-.2v-2.2c-.1 0-.2-.1-.3-.1-.1 0-.2 0-.3 0-.3-.1-.6 0-.7.3zm-2.7 2.7c-.4.4-1 .6-1.7.6s-1.3-.2-1.7-.6c-.4-.4-.6-1-.6-1.7s.2-1.3.6-1.8c.4-.4 1-.6 1.7-.6s1.3.2 1.7.6c.4.4.6 1 .6 1.7-.1.8-.2 1.3-.6 1.8zm6.4-1.1v-2.9h1.4V65c0 .2 0 .4 0 .5s0 .3 0 .4c0 .1.1.1.2.2.1 0 .2 0 .4 0 .1 0 .2 0 .4 0 .1 0 .3-.1.4-.2v-3.2h1.4v4.5H52v-.5c-.2.2-.5.4-.6.5s-.5.1-.7.1c-.5 0-.8-.1-1-.4-.4-.2-.6-.6-.6-1.2zM37 63.2c.1-.1.2-.2.3-.2.1 0 .2-.1.4-.2.1 0 .3 0 .4 0 0 0 .1 0 .1 0s.1 0 .2 0v1.3h-.1s-.1 0-.2 0-.2 0-.4 0-.3 0-.5.1c-.2 0-.3.1-.5.1v3h-1.4v-4.5h1.4v.6c.2-.1.3-.1.3-.2zm-4.3-.7c-.1 0-.3-.1-.4-.1s-.3 0-.5 0h-.2v1.8c.1 0 .3 0 .4 0 .1 0 .2 0 .3 0s.2 0 .3 0c.1 0 .1-.1.2-.1.1-.1.2-.2.2-.3 0-.1 0-.3 0-.5s0-.3-.1-.5c0-.1-.1-.2-.2-.3zm2 .7c0 .3 0 .5-.1.8-.1.2-.2.5-.4.6-.1.1-.2.2-.4.3-.1.1-.3.2-.4.2s-.3.1-.5.1-.4 0-.6 0h-.8v2H30v-6h2.3c.3 0 .6 0 .9.1.2.1.5.2.7.3.2.1.4.4.5.6.2.3.3.6.3 1zm6.9.7c-.1-.1-.2-.2-.3-.2-.1 0-.2 0-.4 0-.1 0-.2 0-.4 0-.1 0-.2.1-.3.2-.1.1-.1.2-.2.5 0 .2-.1.4-.1.7 0 .3 0 .5.1.7s.1.3.2.4c.1.1.2.2.3.2.1 0 .2.1.4.1.1 0 .2 0 .4-.1.1 0 .2-.1.3-.2.1-.1.1-.2.2-.4 0-.1.1-.4.1-.7 0-.3 0-.5-.1-.7-.1-.2-.2-.4-.2-.5zm23.3-.7c.4-.4 1-.6 1.7-.6s1.3.2 1.7.6c.4.4.6 1 .6 1.7s-.2 1.3-.6 1.7-1 .6-1.7.6-1.3-.2-1.7-.6c-.4-.4-.6-1-.6-1.7-.1-.7.1-1.2.6-1.7zm-3.3.5h-1.4v1.6c0 .2 0 .3 0 .5 0 .1 0 .2.1.3 0 .1.1.2.2.2s.2.1.4.1c.1 0 .2 0 .3 0 .1 0 .2 0 .2-.1h.1v1c-.1 0-.3.1-.5.1s-.4 0-.6 0c-.5 0-1-.1-1.3-.4-.3-.2-.4-.6-.4-1.1v-2.1h-.5v-1h.5v-1.3h1.4v1.3h1.4l.1.9zm4.1.6c0 .2-.1.4-.1.7 0 .3 0 .5.1.7 0 .2.1.3.2.4.1.1.2.2.3.2.1 0 .2.1.4.1.1 0 .2 0 .4-.1.1 0 .2-.1.3-.2.1-.1.1-.2.2-.4 0-.1.1-.4.1-.7 0-.3 0-.5-.1-.7 0-.2-.1-.3-.2-.5-.1-.1-.2-.2-.3-.2-.1 0-.2 0-.4 0s-.2 0-.4 0c-.1 0-.2.1-.3.2 0 .2-.1.4-.2.5zm-10.9-1.1c.2-.2.5-.3.8-.4.3-.1.6-.1 1-.1.2 0 .5 0 .7.1.3 0 .5.1.7.3v1.2h-.2s-.1-.1-.2-.2c-.1 0-.2-.1-.2-.2-.1 0-.2-.1-.4-.1-.1 0-.3 0-.4 0-.4 0-.6.1-.9.4-.2.2-.3.6-.3 1 0 .5.1.8.3 1 .2.2.5.4.8.4.2 0 .3 0 .5-.1.1 0 .3-.1.4-.1.1 0 .2-.1.3-.2 0 0 .1-.1.2-.1h.2v1.2c-.1 0-.2.1-.3.1s-.2.1-.3.1c-.1 0-.3.1-.4.1-.1 0-.3 0-.5 0-.4 0-.7 0-1-.1-.3-.1-.6-.2-.8-.5-.2-.2-.4-.5-.5-.7-.1-.3-.2-.6-.2-1s0-.8.2-1.1c.1-.6.3-.8.5-1zM8.7 28.6H5.3l5.2-6.5h4.7l5.2 6.5H17l-.9-1.1H9.6l-.9 1.1zm3.9-5l-1.9 2.5h4.4l-1.9-2.5h-.6zm19 10.7c0-.1-.2-.1-.5-.1-.2 0-.6 0-1.1 0-.6 0-1.1 0-1.4 0-.3 0-.5 0-.6.1-.1.1-.1.2-.1.4 0 .1 0 .2 0 .3 0 0 .1.1.2.1.3 0 .7.1 1.3.1.2 0 .8 0 1.6 0 .4 0 .6 0 .9.1.2 0 .4.1.5.2.2.1.3.4.3.6 0 .3 0 .5-.2.6-.2.2-.5.3-.9.4-.4 0-1.1.1-2.1.1-.5 0-1 0-1.2 0-.3 0-.5 0-.6-.1-.2-.1-.3-.2-.4-.3-.1-.1-.1-.3-.1-.5 0 0 0-.1 0-.2h.8s0 .1 0 .1c0 .2 0 .3 0 .4 0 0 .1.1.2.1.2 0 .7.1 1.7.1.7 0 1.2 0 1.5-.1.3 0 .5-.2.5-.5 0-.1 0-.2 0-.3 0 0-.1-.1-.2-.1s-.3 0-.5 0-.9 0-2.1 0c-.4 0-.7 0-1-.1-.2 0-.5-.1-.6-.2-.1-.1-.2-.4-.2-.7 0-.3.1-.6.4-.7.1-.1.3-.1.4-.2.1 0 .4 0 .6 0 .4 0 .9 0 1.5 0 .5 0 1 0 1.3 0 .3 0 .5.1.7.2.1.1.2.2.3.3 0 .1.1.3.1.5h-.8v-.1c-.1-.3-.1-.5-.2-.5zM24 35.6h-3.9v1.1h4.1v.5h-4.9v-3.5h4.9v.5h-4.1v1H24c0-.1 0 .4 0 .4zm-6.6 0H13v1.6h-.8v-3.5h.8v1.5h4.3v-1.5h.8v3.5h-.8v-1.6zm-5.9-1.5H9v3h-.8v-3H5.8v-.5h5.7v.5zM11 61v6.2H9.7V61H11zm-2.5.5c.1.1.3.1.4.2v1.4h-.2c-.1 0-.2-.1-.3-.2-.1-.1-.2-.2-.4-.2-.1-.1-.3-.2-.5-.2s-.4-.1-.5-.1c-.2 0-.4 0-.6.1-.2 0-.4.2-.5.4-.1.1-.3.4-.4.6-.1.3-.1.6-.1.9 0 .4 0 .7.1 1 .1.2.2.5.4.6.1.1.3.3.5.4.2 0 .4.1.6.1.2 0 .4 0 .6-.1.2-.1.3-.1.5-.2.1-.1.2-.2.4-.2.1-.1.2-.2.3-.2H9V67c-.1 0-.3.1-.4.1-.1.1-.3.1-.5.2-.2 0-.4.1-.5.1-.1 0-.4 0-.7 0-.9 0-1.6-.3-2.1-.8S4 65.3 4 64.4c0-1 .3-1.7.8-2.3.5-.5 1.2-.8 2.1-.8.2 0 .5 0 .6 0 .2 0 .4.1.5.1.1 0 .3 0 .5.1zm5.6 1.1c.7 0 1.3.2 1.7.6.4.4.6 1 .6 1.7s-.2 1.3-.6 1.7c-.4.4-1 .6-1.7.6s-1.3-.2-1.7-.6c-.4-.4-.6-1-.6-1.7s.2-1.3.6-1.8c.4-.3 1-.5 1.7-.5zm-.3 1.1c-.1 0-.2.1-.3.2-.1.1-.1.2-.2.5 0 .2 0 .4 0 .7 0 .3 0 .5 0 .7s.1.3.2.4c.1.1.2.2.3.2.1 0 .2.1.4.1.1 0 .2 0 .4-.1.1 0 .2-.1.3-.2.1-.1.1-.2.2-.4 0-.1 0-.4 0-.7 0-.3 0-.5 0-.7 0-.2-.1-.3-.2-.5-.1-.1-.2-.2-.3-.2-.1 0-.2 0-.4 0s-.3 0-.4 0zM26.5 61v6.2h-1.4v-.5c-.1.2-.2.3-.3.3-.1.1-.2.1-.3.2-.1 0-.2.1-.3.1-.1 0-.2 0-.4 0-.5 0-.9-.2-1.2-.6-.3-.4-.5-1-.5-1.7 0-.4 0-.7.2-1 .1-.3.2-.5.5-.8.1-.2.4-.4.6-.5.2-.1.5-.2.7-.2.2 0 .4 0 .6 0 .1 0 .3.1.5.3v-2l1.3.2zm-1.7 2.7c-.1 0-.2 0-.3 0-.3 0-.6.1-.7.4-.2.2-.3.5-.3 1s.1.8.2 1c.1.2.4.3.7.3.1 0 .2 0 .4-.1.1 0 .3-.1.4-.2v-2.2c-.1-.1-.2-.2-.4-.2zm-6.3-.9V65c0 .2 0 .4 0 .5 0 .1 0 .3 0 .4 0 .1.1.1.2.2.1 0 .2 0 .4 0 .1 0 .2 0 .4 0 .1 0 .3-.1.4-.2v-3.2h1.4v4.5H20v-.5c-.2.2-.5.4-.7.5-.2.1-.5.1-.7.1-.5 0-.8-.1-1-.4-.2-.3-.4-.7-.4-1.3v-2.9h1.3z" class="st0"/><path d="M59.4 9.3c.4 0 .7.1 1 .4.4.2.7.6.8 1s.2 1.1.2 2c0 .8 0 1.3-.1 1.7s-.3.6-.5.9c-.3.2-.7.4-1.3.5.7 0 1.2.3 1.5.6.2.2.3.5.4.7 0 .3 0 .9 0 1.8v1h-3.2v-.6c0-.6 0-1 0-1.3s-.1-.5-.2-.6c-.1-.1-.3-.2-.5-.3s-.6 0-1.3 0h-4.6v2.7h-3.2V9.3h7.7c1.8 0 2.9 0 3.3 0zm-14.9 0c1.2.1 2 .7 2.3 1.8.2.7.3 1.9.3 3.5s-.1 2.8-.3 3.5c-.3 1-1 1.6-2.3 1.8-.9.1-2.4.1-4.7.1s-3.9 0-4.7-.2c-1.2-.2-2-.7-2.3-1.8-.2-.7-.3-1.9-.3-3.6 0-1.6.1-2.8.3-3.5.3-1 1-1.6 2.3-1.8.9-.1 2.4-.2 4.7-.2 2.3.2 3.8.2 4.7.4zm-1.2 7.5c.2-.1.3-.4.4-.6.1-.3.1-.7.1-1.4 0-.8 0-1.3-.1-1.7 0-.4-.1-.6-.3-.8-.2-.2-.5-.4-.8-.4-.4 0-1.4-.1-2.8-.1-1.7 0-2.7 0-3.1.1-.4.1-.6.3-.8.7s-.2 1.1-.2 2.1c0 .6 0 1.1.1 1.4.1.5.5.8 1.2.9.5 0 1.4.1 2.8.1 1.3 0 2.1 0 2.6 0 .4 0 .7-.1.9-.3zm12.8-4.9h-4.6v2.6h4.6c.8 0 1.3 0 1.4 0s.3 0 .4-.1c.1-.1.2-.2.3-.4 0-.2.1-.5.1-.8 0-.4 0-.6-.1-.8-.1-.2-.2-.3-.4-.4-.1 0-.3-.1-.4-.1-.2 0-.6 0-1.3 0zm21.7 36.9h3.6c1 0 1.6 0 1.9 0 .3 0 .5-.1.7-.2.2-.1.3-.4.3-.8s-.1-.6-.3-.7c-.2-.1-.5-.1-.8-.1-.3 0-.9 0-1.8 0h-3.6v1.8zm-1.2 2.8v-5.5h4.7c1.4 0 2.2 0 2.6 0 .7 0 1.1.3 1.4.6.2.2.2.6.2 1 0 .3 0 .5 0 .7 0 .2-.1.3-.3.4-.2.2-.5.2-.8.3.2 0 .4.1.6.2.2.1.3.3.3.4 0 .2.1.5.1.9v.9h-1.2V51c0-.4 0-.7 0-.9-.1-.3-.3-.5-.8-.5-.2 0-.3 0-.5 0-.1 0-.6 0-1.5 0h-3.6v2.1l-1.2-.1zm-1.9-2.5h-6.2v1.7H75v.8h-7.7v-5.5H75v.8h-6.4v1.5h6.2v.7zM56.8 47v4.6h-1.2v-5.5h1.8l6.6 4.6h.1v-4.6h1.2v5.5h-1.9L56.8 47zm-3.3-.9v5.5h-1.9L45.1 47v4.6h-1.2v-5.5h1.8l6.7 4.6v-4.6h1.1zm-14.2 0l-3.6 5.5h-1.9L31.1 47l-2.8 4.6h-1.9L23 46.1h1.3l3.1 4.7h.2l3-4.7H32l2.9 4.7h.1l3.1-4.7h1.2zm1.4 0h1.2v5.5h-1.2v-5.5zM31.8 9.3V12h-4.7v7.9h-3.4V12H19V9.3h12.8zm-14.2.7c.4.4.5 1.1.5 2.1 0 .1 0 .3 0 .5H15c0-.3 0-.5 0-.6 0-.1-.1-.2-.2-.3s-.4-.1-.7-.2c-.4 0-1.1 0-2.2 0-1.4 0-2.2 0-2.5.1-.3.1-.5.3-.5.7s.1.6.5.7c.2 0 1.4.1 3.4.2 1.7 0 2.9.1 3.5.2.5.1 1 .2 1.4.4.4.2.6.5.8 1 .1.4.2 1 .2 1.7 0 1-.1 1.7-.4 2.2-.2.4-.5.6-.9.8-.4.2-.9.3-1.5.4-.7 0-2 .1-3.9.1-1.6 0-2.7 0-3.5-.1s-1.5-.3-1.9-.5c-.4-.2-.7-.5-.8-.9-.2-.4-.2-1-.2-1.7v-.5h3.1c0 .5.1.9.3 1 .1.1.4.1.6.2.2 0 1 0 2.3 0 1.4 0 2.2 0 2.5 0 .3 0 .5 0 .6-.1.2-.1.4-.4.4-.8 0-.3-.1-.5-.2-.6-.2-.1-.5-.2-1-.2-.4 0-1.2 0-2.5-.1-1.3 0-2.2-.1-2.6-.1-.8 0-1.4-.1-1.8-.2-.4-.1-.7-.3-1-.6-.4-.5-.6-1.2-.6-2.3 0-1.2.2-2.1.7-2.5.4-.4.9-.6 1.6-.7.6-.2 2.1-.3 4.3-.3 1.5 0 2.6 0 3.3.1.9.2 1.6.5 2 .9z" class="st1"/><path d="M5.5 39.1h95.3M5.5 32.2h95.3" class="st2"/></svg>