<?xml version="1.0" encoding="utf-8"?>
<!-- Generator: Adobe Illustrator 25.2.3, SVG Export Plug-In . SVG Version: 6.00 Build 0)  -->
<svg version="1.1" id="Layer_1" xmlns="http://www.w3.org/2000/svg" xmlns:xlink="http://www.w3.org/1999/xlink" x="0px" y="0px"
	 width="83.5px" height="82px" viewBox="0 0 83.5 82" style="enable-background:new 0 0 83.5 82;" xml:space="preserve">
<style type="text/css">
	.st0{fill-rule:evenodd;clip-rule:evenodd;fill:url(#Fill-161_1_);}
	.st1{fill-rule:evenodd;clip-rule:evenodd;fill:#8B8B8B;}
	.st2{fill-rule:evenodd;clip-rule:evenodd;fill:url(#Fill-163_2_);}
	.st3{fill-rule:evenodd;clip-rule:evenodd;fill:url(#Fill-163_3_);}
	.st4{fill-rule:evenodd;clip-rule:evenodd;fill:url(#Rectangle_6_);}
	.st5{fill-rule:evenodd;clip-rule:evenodd;fill:url(#Rectangle_7_);}
	.st6{enable-background:new    ;}
	.st7{fill-rule:evenodd;clip-rule:evenodd;fill:url(#Rectangle_8_);}
	.st8{fill-rule:evenodd;clip-rule:evenodd;fill:url(#Rectangle_9_);}
	.st9{fill-rule:evenodd;clip-rule:evenodd;}
	.st10{fill:#8B8B8B;}
</style>
<g id="customers-love-us-white">
	<g id="Group-3">
		<g id="White-leader-badge-2">
			<g id="White-leader-badge">
				<g id="Group-6">
					<g id="Group-5">
						<g id="shield">
							
								<linearGradient id="Fill-161_1_" gradientUnits="userSpaceOnUse" x1="-915.8488" y1="579.8942" x2="-915.3034" y2="579.5281" gradientTransform="matrix(286 0 0 -302.6096 261986.25 175521.6406)">
								<stop  offset="0" style="stop-color:#C1C1C1"/>
								<stop  offset="1" style="stop-color:#8B8B8B"/>
							</linearGradient>
							<path id="Fill-161" class="st0" d="M3,57.2v-51c0-0.3,0.2-0.5,0.5-0.5L41.7,0c0.1,0,0.1,0,0.2,0L80,5.7
								c0.3,0,0.5,0.3,0.5,0.5v51c0,0.2-0.1,0.4-0.3,0.5L42,81.9c-0.2,0.1-0.4,0.1-0.6,0L3.3,57.7C3.1,57.6,3,57.4,3,57.2z"/>
							<path id="Fill-162" class="st1" d="M79,7.7c0-0.2-0.2-0.5-0.3-0.6L42.3,1.6c0,0-0.1,0-0.5,0s-0.5,0-0.5,0L4.7,7
								C4.6,7.1,4.4,7.5,4.4,7.6v48.5c0,0.2,0.2,0.5,0.3,0.6l37,23.8l37-23.8c0.1-0.1,0.3-0.4,0.3-0.6L79,7.7z"/>
							
								<linearGradient id="Fill-163_2_" gradientUnits="userSpaceOnUse" x1="-915.6226" y1="579.8169" x2="-915.6794" y2="579.8601" gradientTransform="matrix(261.9238 0 0 -279.8408 239866.1094 162289.1406)">
								<stop  offset="0" style="stop-color:#FFFFFF"/>
								<stop  offset="1" style="stop-color:#E7E7E7"/>
							</linearGradient>
							<polygon id="Fill-163" class="st2" points="6.2,8.4 6.2,55.4 41.8,79 77.2,55.4 77.2,8.4 41.8,3.1 							"/>
							
								<linearGradient id="Fill-163_3_" gradientUnits="userSpaceOnUse" x1="-912.164" y1="579.8398" x2="-912.1003" y2="579.6481" gradientTransform="matrix(131.4054 0 0 -279.8408 119886.7656 162289.1406)">
								<stop  offset="0" style="stop-color:#FFFFFF"/>
								<stop  offset="1" style="stop-color:#F3F3F3"/>
							</linearGradient>
							<polygon id="Fill-163_1_" class="st3" points="6.1,55.4 41.8,79 41.8,3.1 6.2,8.4 							"/>
						</g>
					</g>
					<g id="Sash-and-text" transform="translate(11.391892, 89.044586)">
						
							<linearGradient id="Rectangle_6_" gradientUnits="userSpaceOnUse" x1="-926.6254" y1="488.5459" x2="-926.9523" y2="488.4607" gradientTransform="matrix(262.2406 0 0 -107 243133.0469 52212.9414)">
							<stop  offset="0" style="stop-color:#C4C4C4"/>
							<stop  offset="1" style="stop-color:#8B8B8B"/>
						</linearGradient>
						<polygon id="Rectangle" class="st4" points="-5.2,-64.9 65.8,-64.9 65.8,-35.9 -5.2,-35.9 						"/>
					</g>
					<g id="Sash-and-text_1_" transform="translate(17.391892, 164.044586)">
					</g>
					
						<linearGradient id="Rectangle_7_" gradientUnits="userSpaceOnUse" x1="-915.9891" y1="577.5366" x2="-915.6321" y2="577.4869" gradientTransform="matrix(262.4054 0 0 -107 240308.5 61829.7109)">
						<stop  offset="0" style="stop-color:#C4C4C4"/>
						<stop  offset="1" style="stop-color:#8B8B8B"/>
					</linearGradient>
					<polygon id="Rectangle_1_" class="st5" points="6.2,24.1 77.2,24.1 6.1,53.1 					"/>
					<g class="st6">
						<path d="M15.3,32.7l1.9,0.6c-0.3,1.1-0.8,1.8-1.5,2.4c-0.7,0.5-1.5,0.8-2.6,0.8c-1.3,0-2.3-0.4-3.2-1.3
							c-0.8-0.9-1.2-2.1-1.2-3.6c0-1.6,0.4-2.9,1.3-3.8c0.8-0.9,1.9-1.3,3.3-1.3c1.2,0,2.2,0.4,2.9,1.1c0.4,0.4,0.8,1,1,1.8
							l-1.9,0.5c-0.1-0.5-0.4-0.9-0.7-1.2s-0.8-0.4-1.3-0.4c-0.7,0-1.3,0.3-1.7,0.8c-0.4,0.5-0.7,1.4-0.7,2.5c0,1.2,0.2,2.1,0.7,2.6
							c0.4,0.5,1,0.8,1.7,0.8c0.5,0,1-0.2,1.3-0.5C14.9,34,15.2,33.4,15.3,32.7z"/>
						<path d="M23.5,36.3v-1.1c-0.3,0.4-0.6,0.7-1,0.9c-0.4,0.2-0.9,0.3-1.3,0.3c-0.5,0-0.9-0.1-1.3-0.3c-0.4-0.2-0.6-0.5-0.8-0.9
							c-0.2-0.4-0.3-0.9-0.3-1.6v-4.4h1.9v3.2c0,1,0,1.6,0.1,1.8c0.1,0.2,0.2,0.4,0.4,0.5c0.2,0.1,0.4,0.2,0.7,0.2
							c0.3,0,0.6-0.1,0.9-0.3c0.3-0.2,0.4-0.4,0.5-0.6c0.1-0.3,0.1-0.9,0.1-1.9v-3h1.9v7H23.5z"/>
						<path d="M26.5,34.3l1.9-0.3c0.1,0.4,0.2,0.6,0.5,0.8c0.2,0.2,0.6,0.3,1,0.3c0.5,0,0.8-0.1,1.1-0.3c0.2-0.1,0.2-0.3,0.2-0.5
							c0-0.1,0-0.3-0.1-0.4c-0.1-0.1-0.3-0.2-0.6-0.2c-1.5-0.3-2.5-0.6-2.9-0.9c-0.6-0.4-0.8-0.9-0.8-1.6c0-0.6,0.2-1.1,0.7-1.5
							c0.5-0.4,1.2-0.6,2.2-0.6c1,0,1.7,0.2,2.1,0.5c0.5,0.3,0.8,0.8,1,1.4l-1.8,0.3c-0.1-0.3-0.2-0.5-0.4-0.6
							c-0.2-0.1-0.5-0.2-0.9-0.2c-0.5,0-0.8,0.1-1.1,0.2c-0.1,0.1-0.2,0.2-0.2,0.4c0,0.1,0.1,0.2,0.2,0.3c0.2,0.1,0.7,0.3,1.7,0.5
							c1,0.2,1.7,0.5,2.1,0.8c0.4,0.3,0.6,0.8,0.6,1.4c0,0.6-0.3,1.2-0.8,1.7c-0.5,0.5-1.3,0.7-2.4,0.7c-1,0-1.7-0.2-2.3-0.6
							C27.1,35.5,26.7,35,26.5,34.3z"/>
						<path d="M37.9,29.3v1.5h-1.3v2.8c0,0.6,0,0.9,0,1c0,0.1,0.1,0.2,0.2,0.2c0.1,0.1,0.2,0.1,0.3,0.1c0.2,0,0.4-0.1,0.7-0.2
							l0.2,1.4c-0.4,0.2-0.9,0.3-1.5,0.3c-0.3,0-0.6-0.1-0.9-0.2c-0.3-0.1-0.5-0.3-0.6-0.4s-0.2-0.4-0.3-0.7c0-0.2-0.1-0.7-0.1-1.3
							v-3.1H34v-1.5h0.9v-1.4l1.9-1.1v2.5H37.9z"/>
						<path d="M38.8,32.7c0-0.6,0.2-1.2,0.5-1.8c0.3-0.6,0.7-1,1.3-1.3c0.6-0.3,1.2-0.5,1.9-0.5c1.1,0,1.9,0.3,2.6,1
							c0.7,0.7,1,1.6,1,2.6c0,1.1-0.3,1.9-1,2.6c-0.7,0.7-1.5,1-2.6,1c-0.6,0-1.3-0.1-1.8-0.4c-0.6-0.3-1-0.7-1.3-1.3
							C39,34.2,38.8,33.5,38.8,32.7z M40.7,32.8c0,0.7,0.2,1.2,0.5,1.6c0.3,0.4,0.7,0.6,1.2,0.6c0.5,0,0.9-0.2,1.2-0.6
							c0.3-0.4,0.5-0.9,0.5-1.6c0-0.7-0.2-1.2-0.5-1.6c-0.3-0.4-0.7-0.6-1.2-0.6c-0.5,0-0.9,0.2-1.2,0.6
							C40.9,31.6,40.7,32.1,40.7,32.8z"/>
						<path d="M47.4,29.3h1.7v1c0.6-0.7,1.3-1.1,2.2-1.1c0.5,0,0.8,0.1,1.2,0.3s0.6,0.5,0.8,0.8c0.3-0.4,0.6-0.7,1-0.8
							c0.4-0.2,0.7-0.3,1.1-0.3c0.5,0,1,0.1,1.3,0.3c0.4,0.2,0.6,0.5,0.8,0.9c0.1,0.3,0.2,0.8,0.2,1.5v4.5h-1.9v-4
							c0-0.7-0.1-1.1-0.2-1.3c-0.2-0.3-0.4-0.4-0.8-0.4c-0.3,0-0.5,0.1-0.7,0.2c-0.2,0.2-0.4,0.4-0.5,0.7c-0.1,0.3-0.2,0.8-0.2,1.5
							v3.4h-1.9v-3.9c0-0.7,0-1.1-0.1-1.3c-0.1-0.2-0.2-0.3-0.3-0.4c-0.1-0.1-0.3-0.1-0.6-0.1c-0.3,0-0.5,0.1-0.8,0.2
							c-0.2,0.2-0.4,0.4-0.5,0.7c-0.1,0.3-0.1,0.8-0.1,1.4v3.4h-1.9V29.3z"/>
						<path d="M63.6,34.1l1.9,0.3c-0.2,0.7-0.6,1.2-1.1,1.6c-0.5,0.4-1.2,0.5-1.9,0.5c-1.2,0-2.1-0.4-2.7-1.2
							c-0.5-0.6-0.7-1.4-0.7-2.4c0-1.2,0.3-2.1,0.9-2.7c0.6-0.7,1.4-1,2.3-1c1,0,1.9,0.3,2.5,1c0.6,0.7,0.9,1.7,0.9,3.2h-4.7
							c0,0.6,0.2,1,0.4,1.3c0.3,0.3,0.6,0.5,1.1,0.5c0.3,0,0.5-0.1,0.7-0.2S63.5,34.4,63.6,34.1z M63.7,32.2c0-0.5-0.2-0.9-0.4-1.2
							c-0.3-0.3-0.6-0.4-1-0.4c-0.4,0-0.7,0.1-1,0.4c-0.3,0.3-0.4,0.7-0.4,1.2H63.7z"/>
						<path d="M68.9,36.3H67v-7h1.7v1c0.3-0.5,0.6-0.8,0.8-0.9c0.2-0.2,0.5-0.2,0.8-0.2c0.4,0,0.8,0.1,1.2,0.4L71,31.1
							c-0.3-0.2-0.6-0.3-0.9-0.3c-0.3,0-0.5,0.1-0.7,0.2c-0.2,0.1-0.3,0.4-0.4,0.8c-0.1,0.4-0.2,1.2-0.2,2.4V36.3z"/>
						<path d="M71.7,34.3l1.9-0.3c0.1,0.4,0.2,0.6,0.5,0.8c0.2,0.2,0.6,0.3,1,0.3c0.5,0,0.8-0.1,1.1-0.3c0.2-0.1,0.2-0.3,0.2-0.5
							c0-0.1,0-0.3-0.1-0.4c-0.1-0.1-0.3-0.2-0.6-0.2c-1.5-0.3-2.4-0.6-2.9-0.9C72.2,32.5,72,32,72,31.3c0-0.6,0.2-1.1,0.7-1.5
							c0.5-0.4,1.2-0.6,2.2-0.6c1,0,1.7,0.2,2.1,0.5c0.5,0.3,0.8,0.8,1,1.4l-1.8,0.3c-0.1-0.3-0.2-0.5-0.4-0.6s-0.5-0.2-0.9-0.2
							c-0.5,0-0.8,0.1-1.1,0.2c-0.1,0.1-0.2,0.2-0.2,0.4c0,0.1,0.1,0.2,0.2,0.3c0.2,0.1,0.7,0.3,1.7,0.5c1,0.2,1.7,0.5,2.1,0.8
							c0.4,0.3,0.6,0.8,0.6,1.4c0,0.6-0.3,1.2-0.8,1.7c-0.5,0.5-1.3,0.7-2.4,0.7c-1,0-1.7-0.2-2.3-0.6C72.2,35.5,71.9,35,71.7,34.3z
							"/>
					</g>
					<g class="st6">
						<path d="M18.6,49.6V40h2v8h4.9v1.6H18.6z"/>
						<path d="M26.2,46c0-0.6,0.2-1.2,0.5-1.8c0.3-0.6,0.7-1,1.3-1.3c0.6-0.3,1.2-0.5,1.9-0.5c1.1,0,1.9,0.3,2.6,1
							c0.7,0.7,1,1.6,1,2.6c0,1.1-0.3,1.9-1,2.6c-0.7,0.7-1.5,1-2.6,1c-0.6,0-1.3-0.1-1.8-0.4c-0.6-0.3-1-0.7-1.3-1.3
							C26.4,47.5,26.2,46.8,26.2,46z M28.1,46.1c0,0.7,0.2,1.2,0.5,1.6c0.3,0.4,0.7,0.6,1.2,0.6c0.5,0,0.9-0.2,1.2-0.6
							c0.3-0.4,0.5-0.9,0.5-1.6c0-0.7-0.2-1.2-0.5-1.6c-0.3-0.4-0.7-0.6-1.2-0.6c-0.5,0-0.9,0.2-1.2,0.6
							C28.3,44.8,28.1,45.4,28.1,46.1z"/>
						<path d="M36.7,49.6l-2.8-7h2l1.3,3.6l0.4,1.2c0.1-0.3,0.2-0.5,0.2-0.6c0.1-0.2,0.1-0.4,0.2-0.6l1.3-3.6h1.9l-2.8,7H36.7z"/>
						<path d="M46.2,47.3l1.9,0.3c-0.2,0.7-0.6,1.2-1.1,1.6c-0.5,0.4-1.2,0.5-1.9,0.5c-1.2,0-2.1-0.4-2.7-1.2
							c-0.5-0.6-0.7-1.4-0.7-2.4c0-1.2,0.3-2.1,0.9-2.7c0.6-0.7,1.4-1,2.3-1c1,0,1.9,0.3,2.5,1c0.6,0.7,0.9,1.7,0.9,3.2h-4.7
							c0,0.6,0.2,1,0.4,1.3c0.3,0.3,0.6,0.5,1.1,0.5c0.3,0,0.5-0.1,0.7-0.2S46.1,47.7,46.2,47.3z M46.3,45.5c0-0.5-0.2-0.9-0.4-1.2
							c-0.3-0.3-0.6-0.4-1-0.4c-0.4,0-0.7,0.1-1,0.4c-0.3,0.3-0.4,0.7-0.4,1.2H46.3z"/>
						<path d="M53,39.9h2v5.3c0,0.8,0,1.4,0.1,1.6c0.1,0.4,0.3,0.7,0.6,1s0.7,0.4,1.3,0.4c0.6,0,1-0.1,1.3-0.3
							c0.3-0.2,0.5-0.5,0.5-0.8c0.1-0.3,0.1-0.9,0.1-1.6v-5.4h2V45c0,1.2-0.1,2-0.2,2.5c-0.1,0.5-0.3,0.9-0.6,1.2
							c-0.3,0.3-0.7,0.6-1.1,0.8c-0.5,0.2-1.1,0.3-1.9,0.3c-0.9,0-1.6-0.1-2.1-0.3c-0.5-0.2-0.9-0.5-1.1-0.8
							c-0.3-0.3-0.5-0.7-0.5-1.1C53.1,47,53,46.1,53,45.1V39.9z"/>
						<path d="M61.9,47.6l1.9-0.3c0.1,0.4,0.2,0.6,0.5,0.8c0.2,0.2,0.6,0.3,1,0.3c0.5,0,0.8-0.1,1.1-0.3c0.2-0.1,0.2-0.3,0.2-0.5
							c0-0.1,0-0.3-0.1-0.4c-0.1-0.1-0.3-0.2-0.6-0.2c-1.5-0.3-2.4-0.6-2.9-0.9c-0.6-0.4-0.8-0.9-0.8-1.6c0-0.6,0.2-1.1,0.7-1.5
							c0.5-0.4,1.2-0.6,2.2-0.6c1,0,1.7,0.2,2.1,0.5c0.5,0.3,0.8,0.8,1,1.4l-1.8,0.3c-0.1-0.3-0.2-0.5-0.4-0.6s-0.5-0.2-0.9-0.2
							c-0.5,0-0.8,0.1-1.1,0.2c-0.1,0.1-0.2,0.2-0.2,0.4c0,0.1,0.1,0.2,0.2,0.3c0.2,0.1,0.7,0.3,1.7,0.5c1,0.2,1.7,0.5,2.1,0.8
							c0.4,0.3,0.6,0.8,0.6,1.4c0,0.6-0.3,1.2-0.8,1.7c-0.5,0.5-1.3,0.7-2.4,0.7c-1,0-1.7-0.2-2.3-0.6
							C62.5,48.8,62.1,48.2,61.9,47.6z"/>
					</g>
					
						<linearGradient id="Rectangle_8_" gradientUnits="userSpaceOnUse" x1="-915.2335" y1="577.5905" x2="-915.5604" y2="577.5053" gradientTransform="matrix(262.2406 0 0 -107 240156.9844 61829.7539)">
						<stop  offset="0" style="stop-color:#C4C4C4"/>
						<stop  offset="1" style="stop-color:#8B8B8B"/>
					</linearGradient>
					<polygon id="Rectangle_2_" class="st7" points="6.2,24.1 77.2,24.1 77.2,53.1 6.1,53.1 					"/>
					
						<linearGradient id="Rectangle_9_" gradientUnits="userSpaceOnUse" x1="-915.9891" y1="577.5366" x2="-915.6321" y2="577.4869" gradientTransform="matrix(262.4054 0 0 -107 240308.5 61829.7109)">
						<stop  offset="0" style="stop-color:#C4C4C4"/>
						<stop  offset="1" style="stop-color:#8B8B8B"/>
					</linearGradient>
					<polygon id="Rectangle_3_" class="st8" points="6.2,24.1 77.2,24.1 6.1,53.1 					"/>
					<g class="st6">
						<path d="M14,32.5l1.9,0.6c-0.3,1-0.8,1.8-1.4,2.3c-0.7,0.5-1.5,0.8-2.5,0.8c-1.3,0-2.3-0.4-3.1-1.3c-0.8-0.9-1.2-2-1.2-3.5
							c0-1.6,0.4-2.8,1.2-3.7c0.8-0.9,1.9-1.3,3.2-1.3c1.2,0,2.1,0.3,2.8,1c0.4,0.4,0.8,1,1,1.8l-1.9,0.5c-0.1-0.5-0.3-0.9-0.7-1.2
							c-0.4-0.3-0.8-0.4-1.3-0.4c-0.7,0-1.3,0.3-1.7,0.8c-0.4,0.5-0.7,1.3-0.7,2.5c0,1.2,0.2,2.1,0.6,2.6c0.4,0.5,1,0.8,1.7,0.8
							c0.5,0,0.9-0.2,1.3-0.5C13.6,33.7,13.8,33.2,14,32.5z"/>
						<path d="M22,36v-1c-0.3,0.4-0.6,0.7-1,0.9c-0.4,0.2-0.8,0.3-1.3,0.3c-0.5,0-0.9-0.1-1.2-0.3c-0.4-0.2-0.6-0.5-0.8-0.9
							c-0.2-0.4-0.2-0.9-0.2-1.5v-4.4h1.8v3.2c0,1,0,1.6,0.1,1.8c0.1,0.2,0.2,0.4,0.4,0.5c0.2,0.1,0.4,0.2,0.7,0.2
							c0.3,0,0.6-0.1,0.8-0.3c0.2-0.2,0.4-0.4,0.5-0.6c0.1-0.3,0.1-0.9,0.1-1.9v-2.9h1.8V36H22z"/>
						<path d="M24.9,34.1l1.8-0.3c0.1,0.4,0.2,0.6,0.5,0.8c0.2,0.2,0.6,0.3,1,0.3c0.5,0,0.8-0.1,1.1-0.3c0.2-0.1,0.2-0.3,0.2-0.5
							c0-0.1,0-0.3-0.1-0.3c-0.1-0.1-0.3-0.2-0.6-0.2c-1.5-0.3-2.4-0.6-2.8-0.9c-0.5-0.4-0.8-0.9-0.8-1.5c0-0.6,0.2-1.1,0.7-1.5
							c0.5-0.4,1.2-0.6,2.2-0.6c0.9,0,1.6,0.2,2.1,0.5c0.5,0.3,0.8,0.8,0.9,1.4l-1.7,0.3c-0.1-0.3-0.2-0.5-0.4-0.6
							c-0.2-0.1-0.5-0.2-0.9-0.2c-0.5,0-0.8,0.1-1,0.2c-0.1,0.1-0.2,0.2-0.2,0.4c0,0.1,0.1,0.2,0.2,0.3c0.2,0.1,0.7,0.3,1.7,0.5
							c1,0.2,1.6,0.5,2,0.8c0.4,0.3,0.6,0.8,0.6,1.4c0,0.6-0.3,1.2-0.8,1.6c-0.5,0.5-1.3,0.7-2.3,0.7c-0.9,0-1.7-0.2-2.2-0.6
							C25.5,35.2,25.1,34.7,24.9,34.1z"/>
						<path d="M36.1,29.1v1.5h-1.2v2.8c0,0.6,0,0.9,0,1c0,0.1,0.1,0.2,0.2,0.2c0.1,0.1,0.2,0.1,0.3,0.1c0.2,0,0.4-0.1,0.7-0.2
							l0.2,1.4c-0.4,0.2-0.9,0.3-1.4,0.3c-0.3,0-0.6-0.1-0.9-0.2c-0.3-0.1-0.5-0.3-0.6-0.4c-0.1-0.2-0.2-0.4-0.3-0.7
							c0-0.2-0.1-0.6-0.1-1.3v-3h-0.8v-1.5h0.8v-1.4l1.8-1.1v2.4H36.1z"/>
						<path d="M37,32.5c0-0.6,0.1-1.2,0.4-1.8c0.3-0.6,0.7-1,1.3-1.3c0.5-0.3,1.2-0.4,1.8-0.4c1,0,1.9,0.3,2.6,1
							c0.7,0.7,1,1.5,1,2.6c0,1-0.3,1.9-1,2.6c-0.7,0.7-1.5,1-2.5,1c-0.6,0-1.2-0.1-1.8-0.4c-0.6-0.3-1-0.7-1.3-1.3
							C37.1,34,37,33.3,37,32.5z M38.8,32.6c0,0.7,0.2,1.2,0.5,1.6c0.3,0.4,0.7,0.5,1.2,0.5c0.5,0,0.9-0.2,1.2-0.5
							c0.3-0.4,0.5-0.9,0.5-1.6c0-0.7-0.2-1.2-0.5-1.6c-0.3-0.4-0.7-0.5-1.2-0.5c-0.5,0-0.9,0.2-1.2,0.5
							C39,31.4,38.8,31.9,38.8,32.6z"/>
						<path d="M45.4,29.1H47v0.9c0.6-0.7,1.3-1.1,2.1-1.1c0.4,0,0.8,0.1,1.1,0.3c0.3,0.2,0.6,0.5,0.8,0.8c0.3-0.4,0.6-0.6,1-0.8
							c0.3-0.2,0.7-0.3,1.1-0.3c0.5,0,0.9,0.1,1.3,0.3c0.4,0.2,0.6,0.5,0.8,0.9c0.1,0.3,0.2,0.8,0.2,1.4V36h-1.8v-3.9
							c0-0.7-0.1-1.1-0.2-1.3c-0.2-0.3-0.4-0.4-0.8-0.4c-0.3,0-0.5,0.1-0.7,0.2c-0.2,0.2-0.4,0.4-0.5,0.7c-0.1,0.3-0.1,0.8-0.1,1.4
							V36h-1.8v-3.8c0-0.7,0-1.1-0.1-1.3c-0.1-0.2-0.2-0.3-0.3-0.4c-0.1-0.1-0.3-0.1-0.6-0.1c-0.3,0-0.5,0.1-0.8,0.2
							c-0.2,0.2-0.4,0.4-0.5,0.7c-0.1,0.3-0.1,0.8-0.1,1.4V36h-1.8V29.1z"/>
						<path d="M61.3,33.8l1.8,0.3c-0.2,0.7-0.6,1.2-1.1,1.5c-0.5,0.3-1.1,0.5-1.9,0.5c-1.2,0-2.1-0.4-2.7-1.2
							c-0.5-0.6-0.7-1.4-0.7-2.4c0-1.1,0.3-2,0.9-2.7c0.6-0.6,1.4-1,2.3-1c1,0,1.8,0.3,2.4,1c0.6,0.7,0.9,1.7,0.8,3.1h-4.6
							c0,0.5,0.2,1,0.4,1.3c0.3,0.3,0.6,0.5,1.1,0.5c0.3,0,0.5-0.1,0.7-0.2C61.1,34.4,61.2,34.2,61.3,33.8z M61.4,32
							c0-0.5-0.1-0.9-0.4-1.2c-0.3-0.3-0.6-0.4-0.9-0.4c-0.4,0-0.7,0.1-1,0.4c-0.3,0.3-0.4,0.7-0.4,1.2H61.4z"/>
						<path d="M66.4,36h-1.8v-6.9h1.7v1c0.3-0.5,0.6-0.8,0.8-0.9c0.2-0.1,0.5-0.2,0.8-0.2c0.4,0,0.8,0.1,1.2,0.3l-0.6,1.6
							c-0.3-0.2-0.6-0.3-0.9-0.3c-0.3,0-0.5,0.1-0.6,0.2c-0.2,0.1-0.3,0.4-0.4,0.8c-0.1,0.4-0.2,1.1-0.2,2.3V36z"/>
						<path d="M69.2,34.1l1.8-0.3c0.1,0.4,0.2,0.6,0.5,0.8c0.2,0.2,0.6,0.3,1,0.3c0.5,0,0.8-0.1,1.1-0.3c0.2-0.1,0.2-0.3,0.2-0.5
							c0-0.1,0-0.3-0.1-0.3c-0.1-0.1-0.3-0.2-0.6-0.2c-1.5-0.3-2.4-0.6-2.8-0.9c-0.5-0.4-0.8-0.9-0.8-1.5c0-0.6,0.2-1.1,0.7-1.5
							c0.5-0.4,1.2-0.6,2.2-0.6c0.9,0,1.6,0.2,2.1,0.5c0.5,0.3,0.8,0.8,0.9,1.4l-1.7,0.3c-0.1-0.3-0.2-0.5-0.4-0.6
							c-0.2-0.1-0.5-0.2-0.9-0.2c-0.5,0-0.8,0.1-1,0.2c-0.1,0.1-0.2,0.2-0.2,0.4c0,0.1,0.1,0.2,0.2,0.3c0.2,0.1,0.7,0.3,1.7,0.5
							c1,0.2,1.6,0.5,2,0.8c0.4,0.3,0.6,0.8,0.6,1.4c0,0.6-0.3,1.2-0.8,1.6c-0.5,0.5-1.3,0.7-2.3,0.7c-0.9,0-1.7-0.2-2.2-0.6
							C69.7,35.2,69.4,34.7,69.2,34.1z"/>
					</g>
					<g class="st6">
						<path d="M17.2,49.3v-9.4h1.9v7.8h4.8v1.6H17.2z"/>
						<path d="M24.6,45.8c0-0.6,0.1-1.2,0.4-1.8c0.3-0.6,0.7-1,1.3-1.3c0.5-0.3,1.2-0.4,1.8-0.4c1,0,1.9,0.3,2.6,1
							c0.7,0.7,1,1.5,1,2.6c0,1-0.3,1.9-1,2.6c-0.7,0.7-1.5,1-2.5,1c-0.6,0-1.2-0.1-1.8-0.4s-1-0.7-1.3-1.3
							C24.8,47.2,24.6,46.6,24.6,45.8z M26.5,45.9c0,0.7,0.2,1.2,0.5,1.6c0.3,0.4,0.7,0.5,1.2,0.5c0.5,0,0.9-0.2,1.2-0.5
							c0.3-0.4,0.5-0.9,0.5-1.6c0-0.7-0.2-1.2-0.5-1.6c-0.3-0.4-0.7-0.5-1.2-0.5c-0.5,0-0.9,0.2-1.2,0.5
							C26.7,44.7,26.5,45.2,26.5,45.9z"/>
						<path d="M34.9,49.3l-2.8-6.9H34l1.3,3.5l0.4,1.2c0.1-0.3,0.2-0.5,0.2-0.6c0.1-0.2,0.1-0.4,0.2-0.6l1.3-3.5h1.9l-2.7,6.9H34.9z
							"/>
						<path d="M44.2,47.1l1.8,0.3c-0.2,0.7-0.6,1.2-1.1,1.5c-0.5,0.3-1.1,0.5-1.9,0.5c-1.2,0-2.1-0.4-2.7-1.2
							c-0.5-0.6-0.7-1.4-0.7-2.4c0-1.1,0.3-2,0.9-2.7c0.6-0.6,1.4-1,2.3-1c1,0,1.8,0.3,2.4,1c0.6,0.7,0.9,1.7,0.8,3.1h-4.6
							c0,0.5,0.2,1,0.4,1.3c0.3,0.3,0.6,0.5,1.1,0.5c0.3,0,0.5-0.1,0.7-0.2C43.9,47.7,44.1,47.5,44.2,47.1z M44.3,45.3
							c0-0.5-0.1-0.9-0.4-1.2c-0.3-0.3-0.6-0.4-0.9-0.4c-0.4,0-0.7,0.1-1,0.4c-0.3,0.3-0.4,0.7-0.4,1.2H44.3z"/>
						<path d="M50.9,39.8h1.9V45c0,0.8,0,1.3,0.1,1.6c0.1,0.4,0.3,0.7,0.6,0.9c0.3,0.2,0.7,0.4,1.3,0.4c0.5,0,1-0.1,1.2-0.3
							c0.3-0.2,0.4-0.5,0.5-0.8c0.1-0.3,0.1-0.9,0.1-1.6v-5.3h1.9v5c0,1.1-0.1,1.9-0.2,2.4c-0.1,0.5-0.3,0.9-0.6,1.2
							c-0.3,0.3-0.7,0.6-1.1,0.8c-0.5,0.2-1.1,0.3-1.8,0.3c-0.9,0-1.6-0.1-2.1-0.3c-0.5-0.2-0.8-0.5-1.1-0.8
							c-0.3-0.3-0.5-0.7-0.5-1.1c-0.1-0.5-0.2-1.3-0.2-2.4V39.8z"/>
						<path d="M59.6,47.3l1.8-0.3c0.1,0.4,0.2,0.6,0.5,0.8c0.2,0.2,0.6,0.3,1,0.3c0.5,0,0.8-0.1,1.1-0.3c0.2-0.1,0.2-0.3,0.2-0.5
							c0-0.1,0-0.3-0.1-0.3c-0.1-0.1-0.3-0.2-0.6-0.2c-1.5-0.3-2.4-0.6-2.8-0.9c-0.5-0.4-0.8-0.9-0.8-1.5c0-0.6,0.2-1.1,0.7-1.5
							c0.5-0.4,1.2-0.6,2.2-0.6c0.9,0,1.6,0.2,2.1,0.5c0.5,0.3,0.8,0.8,0.9,1.4l-1.7,0.3c-0.1-0.3-0.2-0.5-0.4-0.6
							c-0.2-0.1-0.5-0.2-0.9-0.2c-0.5,0-0.8,0.1-1,0.2c-0.1,0.1-0.2,0.2-0.2,0.4c0,0.1,0.1,0.2,0.2,0.3c0.2,0.1,0.7,0.3,1.7,0.5
							c1,0.2,1.6,0.5,2,0.8c0.4,0.3,0.6,0.8,0.6,1.4c0,0.6-0.3,1.2-0.8,1.6c-0.5,0.5-1.3,0.7-2.3,0.7c-0.9,0-1.7-0.2-2.2-0.6
							S59.8,48,59.6,47.3z"/>
					</g>
				</g>
			</g>
		</g>
	</g>
	<g id="SourceForge-Logo-White-vector" transform="translate(23.000000, 47.000000)">
		<path id="Fill-953" class="st9" d="M-10-33.3c0,0.1-0.1,0.1-0.1,0.1c0,0-0.1,0-0.2-0.1c-0.1-0.1-0.2-0.1-0.3-0.2
			c-0.1-0.1-0.2-0.1-0.4-0.2c-0.2-0.1-0.4-0.1-0.6-0.1c-0.2,0-0.4,0-0.6,0.1c-0.2,0.1-0.3,0.2-0.5,0.3s-0.2,0.3-0.3,0.4
			c-0.1,0.2-0.1,0.3-0.1,0.5c0,0.2,0.1,0.4,0.1,0.6c0.1,0.1,0.2,0.3,0.4,0.4c0.2,0.1,0.3,0.2,0.5,0.3c0.2,0.1,0.4,0.1,0.6,0.2
			c0.2,0.1,0.4,0.1,0.6,0.2c0.2,0.1,0.4,0.2,0.5,0.3c0.2,0.1,0.3,0.3,0.4,0.5c0.1,0.2,0.1,0.4,0.1,0.7c0,0.3-0.1,0.6-0.1,0.8
			c-0.1,0.3-0.2,0.5-0.4,0.7c-0.2,0.2-0.4,0.3-0.7,0.5c-0.3,0.1-0.6,0.2-0.9,0.2c-0.4,0-0.8-0.1-1.1-0.2c-0.3-0.2-0.6-0.4-0.8-0.7
			l0.1-0.2c0-0.1,0.1-0.1,0.1-0.1c0,0,0.1,0,0.1,0.1c0,0,0.1,0.1,0.2,0.1c0.1,0.1,0.1,0.1,0.2,0.2c0.1,0.1,0.2,0.1,0.3,0.2
			c0.1,0.1,0.2,0.1,0.4,0.1c0.2,0,0.3,0.1,0.5,0.1c0.3,0,0.5,0,0.7-0.1s0.4-0.2,0.5-0.3c0.1-0.1,0.3-0.3,0.3-0.5
			c0.1-0.2,0.1-0.4,0.1-0.6c0-0.2-0.1-0.4-0.1-0.6c-0.1-0.2-0.2-0.3-0.4-0.4c-0.2-0.1-0.3-0.2-0.5-0.3c-0.2-0.1-0.4-0.1-0.6-0.2
			c-0.2-0.1-0.4-0.1-0.6-0.2c-0.2-0.1-0.4-0.2-0.5-0.3c-0.2-0.1-0.3-0.3-0.4-0.5c-0.1-0.2-0.1-0.4-0.1-0.7c0-0.2,0-0.5,0.1-0.7
			c0.1-0.2,0.2-0.4,0.4-0.6c0.2-0.2,0.4-0.3,0.6-0.4c0.2-0.1,0.5-0.1,0.8-0.1c0.3,0,0.7,0.1,0.9,0.2c0.3,0.1,0.5,0.3,0.8,0.5
			L-10-33.3z"/>
		<path id="Fill-955" class="st9" d="M-2.8-30.7c0-0.5-0.1-0.9-0.2-1.3c-0.1-0.4-0.3-0.7-0.5-1c-0.2-0.3-0.5-0.5-0.8-0.6
			c-0.3-0.1-0.7-0.2-1.1-0.2c-0.4,0-0.8,0.1-1.1,0.2c-0.3,0.1-0.6,0.3-0.8,0.6c-0.2,0.3-0.4,0.6-0.6,1c-0.1,0.4-0.2,0.8-0.2,1.3
			c0,0.5,0.1,0.9,0.2,1.3c0.1,0.4,0.3,0.7,0.6,1c0.2,0.3,0.5,0.5,0.8,0.6c0.3,0.1,0.7,0.2,1.1,0.2c0.4,0,0.8-0.1,1.1-0.2
			c0.3-0.1,0.6-0.3,0.8-0.6c0.2-0.3,0.4-0.6,0.5-1C-2.9-29.8-2.8-30.3-2.8-30.7 M-2.4-30.7c0,0.5-0.1,1-0.2,1.4
			c-0.2,0.4-0.4,0.8-0.6,1.1c-0.3,0.3-0.6,0.5-1,0.7c-0.4,0.2-0.8,0.3-1.3,0.3c-0.5,0-0.9-0.1-1.3-0.3c-0.4-0.2-0.7-0.4-1-0.7
			c-0.3-0.3-0.5-0.7-0.6-1.1c-0.2-0.4-0.2-0.9-0.2-1.4c0-0.5,0.1-1,0.2-1.4c0.2-0.4,0.4-0.8,0.6-1.1c0.3-0.3,0.6-0.5,1-0.7
			c0.4-0.2,0.8-0.3,1.3-0.3c0.5,0,0.9,0.1,1.3,0.3c0.4,0.2,0.7,0.4,1,0.7c0.3,0.3,0.5,0.7,0.6,1.1C-2.5-31.8-2.4-31.3-2.4-30.7"/>
		<path id="Fill-957" class="st9" d="M1.1-27.7c0.3,0,0.6-0.1,0.8-0.2c0.2-0.1,0.4-0.3,0.6-0.5C2.8-28.5,2.9-28.8,3-29
			c0.1-0.3,0.1-0.6,0.1-0.9v-4.3h0.5v4.3c0,0.4-0.1,0.7-0.2,1.1c-0.1,0.3-0.3,0.6-0.5,0.9c-0.2,0.2-0.5,0.4-0.8,0.6
			c-0.3,0.1-0.6,0.2-1,0.2c-0.4,0-0.7-0.1-1-0.2c-0.3-0.1-0.6-0.3-0.8-0.6c-0.2-0.2-0.4-0.5-0.5-0.9c-0.1-0.3-0.2-0.7-0.2-1.1v-4.3
			h0.5v4.3c0,0.3,0,0.6,0.1,0.9c0.1,0.3,0.2,0.5,0.4,0.7c0.2,0.2,0.4,0.4,0.6,0.5C0.6-27.7,0.8-27.7,1.1-27.7"/>
		<path id="Fill-959" class="st9" d="M6.4-30.8h0.1h0.3c0.3,0,0.7,0,0.9-0.1c0.3-0.1,0.5-0.2,0.7-0.3c0.2-0.1,0.3-0.3,0.4-0.5
			c0.1-0.2,0.2-0.4,0.2-0.7c0-0.5-0.2-0.9-0.5-1.1c-0.4-0.2-0.9-0.4-1.6-0.4H5.5v3.1v0.4v3.2H4.9v-7h2c0.9,0,1.6,0.2,2,0.5
			c0.5,0.3,0.7,0.8,0.7,1.4c0,0.3,0,0.5-0.2,0.7c-0.1,0.2-0.3,0.4-0.5,0.6c-0.2,0.2-0.4,0.3-0.7,0.4c-0.3,0.1-0.6,0.2-0.9,0.2
			c0.1,0.1,0.2,0.1,0.2,0.2l2.7,3H9.8c-0.1,0-0.1,0-0.2,0c0,0-0.1-0.1-0.1-0.1l-2.5-2.9c-0.1-0.1-0.1-0.1-0.2-0.1
			c-0.1,0-0.5,0-0.7,0C6.2-30.8,6.3-30.8,6.4-30.8"/>
		<path id="Fill-961" class="st9" d="M15-28.5C15-28.5,15-28.4,15-28.5l0.3,0.3c-0.1,0.1-0.3,0.3-0.4,0.4c-0.2,0.1-0.3,0.2-0.5,0.3
			c-0.2,0.1-0.4,0.1-0.6,0.2c-0.2,0.1-0.5,0.1-0.7,0.1c-0.5,0-0.9-0.1-1.3-0.3c-0.4-0.2-0.7-0.4-1-0.7c-0.3-0.3-0.5-0.7-0.6-1.1
			c-0.2-0.4-0.2-0.9-0.2-1.4c0-0.5,0.1-1,0.2-1.4c0.2-0.4,0.4-0.8,0.7-1.1c0.3-0.3,0.6-0.5,1-0.7c0.4-0.2,0.8-0.3,1.3-0.3
			c0.2,0,0.5,0,0.7,0.1c0.2,0,0.4,0.1,0.6,0.2c0.2,0.1,0.3,0.2,0.5,0.3c0.2,0.1,0.3,0.2,0.4,0.4L15-33.2c0,0-0.1,0.1-0.1,0.1
			c0,0-0.1,0-0.1-0.1c0,0-0.1-0.1-0.2-0.1c-0.1-0.1-0.2-0.1-0.2-0.2c-0.1-0.1-0.2-0.1-0.3-0.2c-0.1-0.1-0.3-0.1-0.5-0.1
			c-0.2,0-0.4-0.1-0.6-0.1c-0.4,0-0.8,0.1-1.1,0.2c-0.3,0.1-0.6,0.3-0.9,0.6c-0.2,0.3-0.4,0.6-0.6,1c-0.1,0.4-0.2,0.8-0.2,1.3
			c0,0.5,0.1,0.9,0.2,1.3c0.1,0.4,0.3,0.7,0.6,1c0.2,0.3,0.5,0.5,0.8,0.6c0.3,0.1,0.7,0.2,1,0.2c0.2,0,0.4,0,0.6-0.1
			c0.2,0,0.4-0.1,0.5-0.1c0.2-0.1,0.3-0.1,0.4-0.2C14.6-28.2,14.7-28.3,15-28.5C14.9-28.5,14.9-28.5,15-28.5
			C14.9-28.4,15-28.5,15-28.5"/>
		<polygon id="Fill-963" class="st9" points="20.6,-34.3 20.6,-33.8 16.8,-33.8 16.8,-31 20,-31 20,-30.6 16.8,-30.6 16.8,-27.6 
			20.6,-27.6 20.6,-27.2 16.3,-27.2 16.3,-34.3 		"/>
		<polygon id="Fill-965" class="st9" points="26.6,-34.3 26.6,-33.2 23.2,-33.2 23.2,-31.1 26.1,-31.1 26.1,-30.1 23.2,-30.1 
			23.2,-27.2 21.7,-27.2 21.7,-34.3 26.6,-34.3 		"/>
		<path id="Fill-966" class="st9" d="M32.6-30.7c0-0.4-0.1-0.7-0.2-1c-0.1-0.3-0.2-0.6-0.4-0.8c-0.2-0.2-0.4-0.4-0.7-0.5
			c-0.3-0.1-0.6-0.2-0.9-0.2c-0.3,0-0.6,0.1-0.9,0.2c-0.3,0.1-0.5,0.3-0.7,0.5c-0.2,0.2-0.3,0.5-0.4,0.8c-0.1,0.3-0.2,0.6-0.2,1
			c0,0.4,0.1,0.7,0.2,1c0.1,0.3,0.2,0.6,0.4,0.8c0.2,0.2,0.4,0.4,0.7,0.5c0.3,0.1,0.6,0.2,0.9,0.2c0.3,0,0.6-0.1,0.9-0.2
			c0.3-0.1,0.5-0.3,0.7-0.5c0.2-0.2,0.3-0.5,0.4-0.8C32.6-30,32.6-30.4,32.6-30.7 M33.9-30.7c0,0.5-0.1,1-0.2,1.4
			c-0.2,0.4-0.4,0.8-0.7,1.1c-0.3,0.3-0.7,0.6-1.1,0.7c-0.4,0.2-0.9,0.3-1.4,0.3c-0.5,0-1-0.1-1.4-0.3c-0.4-0.2-0.8-0.4-1.1-0.7
			c-0.3-0.3-0.6-0.7-0.7-1.1c-0.2-0.4-0.2-0.9-0.2-1.4c0-0.5,0.1-1,0.2-1.4c0.2-0.4,0.4-0.8,0.7-1.1c0.3-0.3,0.7-0.6,1.1-0.7
			c0.4-0.2,0.9-0.3,1.4-0.3c0.5,0,1,0.1,1.4,0.3c0.4,0.2,0.8,0.4,1.1,0.7c0.3,0.3,0.6,0.7,0.7,1.1C33.8-31.7,33.9-31.3,33.9-30.7"/>
		<path id="Fill-967" class="st9" d="M36.1-30.9h0.3c0.2,0,0.4,0,0.6-0.1c0.2-0.1,0.3-0.1,0.4-0.3c0.1-0.1,0.2-0.2,0.2-0.4
			c0-0.1,0.1-0.3,0.1-0.5c0-0.4-0.1-0.6-0.3-0.8c-0.2-0.2-0.5-0.3-1-0.3h-0.8v2.3v0.9v2.8h-1.2v-7h1.9c0.4,0,0.8,0.1,1.1,0.1
			c0.3,0.1,0.6,0.2,0.7,0.4c0.2,0.2,0.3,0.4,0.4,0.6c0.1,0.3,0.1,0.5,0.1,0.8c0,0.2,0,0.5-0.1,0.7c-0.1,0.2-0.2,0.4-0.3,0.6
			s-0.3,0.3-0.4,0.5c-0.2,0.1-0.4,0.2-0.6,0.3c0.1,0.1,0.3,0.2,0.4,0.4l1.6,2.6h-1.1c-0.1,0-0.2,0-0.3-0.1c-0.1,0-0.1-0.1-0.2-0.2
			l-1.3-2.3c0-0.1-0.1-0.2-0.2-0.2H36v-0.9C36-30.9,36.1-30.9,36.1-30.9"/>
		<path id="Fill-968" class="st9" d="M43.3-28.2c0.3,0,0.6,0,0.8-0.1c0.2-0.1,0.4-0.1,0.6-0.2v-1.6h-0.9c-0.1,0-0.1,0-0.2-0.1
			c-0.1-0.1-0.1-0.1-0.1-0.2V-31h2.3v3.1c-0.2,0.1-0.4,0.2-0.6,0.3c-0.2,0.1-0.4,0.2-0.6,0.2c-0.2,0.1-0.4,0.1-0.7,0.1
			c-0.3,0-0.5,0-0.8,0c-0.5,0-1-0.1-1.4-0.3c-0.4-0.2-0.8-0.4-1.1-0.7c-0.3-0.3-0.6-0.7-0.7-1.1c-0.2-0.4-0.3-0.9-0.3-1.4
			c0-0.5,0.1-1,0.3-1.4c0.2-0.4,0.4-0.8,0.7-1.1c0.3-0.3,0.7-0.6,1.2-0.7c0.5-0.2,1-0.3,1.5-0.3c0.6,0,1.1,0.1,1.5,0.2
			c0.4,0.2,0.8,0.4,1.1,0.6l-0.4,0.6c-0.1,0.1-0.2,0.2-0.3,0.2c-0.1,0-0.2,0-0.2-0.1c-0.1-0.1-0.2-0.1-0.3-0.2
			c-0.1-0.1-0.2-0.1-0.4-0.2c-0.1,0-0.3-0.1-0.4-0.1c-0.2,0-0.4,0-0.6,0c-0.3,0-0.7,0.1-0.9,0.2c-0.3,0.1-0.5,0.3-0.7,0.5
			c-0.2,0.2-0.3,0.5-0.5,0.8c-0.1,0.3-0.2,0.6-0.2,1c0,0.4,0.1,0.8,0.2,1.1s0.3,0.6,0.5,0.8c0.2,0.2,0.5,0.4,0.7,0.5
			C42.6-28.3,42.9-28.2,43.3-28.2"/>
		<path id="Fill-969" class="st9" d="M50.5-30.1h-2.4v1.8h3.4v1.1h-4.9v-7h4.9v1.1h-3.4v2.2h2.7v0.8C50.8-30.3,50.8-30.1,50.5-30.1"
			/>
	</g>
	<g id="SF-logo-vector" transform="translate(115.000000, 212.000000)">
		<path id="Rectangle_4_" class="st1" d="M-74.4-154.6h1.8c0.1,0,0.2,0.1,0.2,0.2v0.1c0,0.1,0,0.1-0.1,0.2l-5.8,6.3
			c-0.1,0.1-0.1,0.3,0,0.4l4.6,5c0.1,0.1,0.1,0.3,0,0.4l-0.8,0.9c-0.1,0.1-0.3,0.1-0.4,0c0,0,0,0,0,0l-5.7-6.3
			c-0.1-0.1-0.1-0.3,0-0.4l6-6.6C-74.6-154.5-74.5-154.6-74.4-154.6z"/>
		<path id="Rectangle_5_" class="st1" d="M-71.8-139.9h-1.8c-0.1,0-0.2-0.1-0.2-0.2v-0.1c0-0.1,0-0.1,0.1-0.2l5.8-6.3
			c0.1-0.1,0.1-0.3,0-0.4l-4.5-5c-0.1-0.1-0.1-0.3,0-0.4l0.8-0.9c0.1-0.1,0.3-0.1,0.4,0c0,0,0,0,0,0l5.7,6.2c0.1,0.1,0.1,0.3,0,0.4
			l-6,6.6C-71.7-140-71.7-139.9-71.8-139.9z"/>
		<path id="Oval" class="st1" d="M-72.9-144.3c1.2,0,2.2-1.4,2.1-2.8c-0.1-0.7-0.5-1.8-0.6-1.6c-0.1,0.1,0.1,0.9,0,1.4
			c-0.1,0.8-0.4,1.3-0.6,1c-0.2-0.3-0.1-0.9-0.1-1.5c0-0.7-0.2-1.3-0.3-1.7c-0.1-0.2-0.6-1.7-1-1.8c0,0,0,0,0,0c0,0-0.1,0-0.1,0
			c-0.1,0.1,0,0.6-0.3,1.2c-0.2,0.4-0.7,0.9-1,1.5c-0.3,0.7-0.4,1.4-0.4,1.8C-75.1-145.2-74.2-144.3-72.9-144.3z"/>
	</g>
</g>
<rect x="77.2" y="29.5" class="st10" width="1.2" height="6.5"/>
</svg>
