<?xml version="1.0" encoding="utf-8"?>
<!-- Generator: Adobe Illustrator 25.2.3, SVG Export Plug-In . SVG Version: 6.00 Build 0)  -->
<svg version="1.1" xmlns="http://www.w3.org/2000/svg" xmlns:xlink="http://www.w3.org/1999/xlink" x="0px" y="0px" width="131px"
	 height="98px" viewBox="0 0 131 98" style="enable-background:new 0 0 131 98;" xml:space="preserve">
<style type="text/css">
	.st0{fill:#FFFFFF;}
	.st1{fill:#00AAF5;}
	.st2{fill:#38A5DD;}
</style>
<g id="Layer_3">
	<rect class="st0" width="131" height="98"/>
</g>
<g id="Layer_1">
	<g id="Layer_2_1_">
		<path class="st0" d="M0,0v98h131V0H0z M126.4,85.4c-0.3,0.4-0.7,0.8-1.2,1.1c-3.3,2.7-7.7,3.1-12,3.1c-0.9,0.8-2,1.3-3.3,1.5
			c-0.1,0-0.1,0-0.2,0c-0.8,1.2-2.1,2-4,1.9c-2.4-0.1-4.7-0.4-7-1.3c-3.7-1.5-4.4-6-2.3-8.3c-1.3-3,0.1-7.3,4.4-7.2
			c3.5,0.1,7,0.7,10.5,1.1c2.1,0.2,4.3,0.5,6.4,0.5c0.5,0,1.5-0.2,2.1-0.1c0.3-0.3,0.5-0.3,0.6-0.3C124.9,74.8,129.9,81,126.4,85.4z
			"/>
	</g>
	<g id="Layer_1_1_">
		<path class="st1" d="M61.4,39.4V14.2L35.2,18v21.5L61.4,39.4L61.4,39.4z M63.9,39.4h34.5V9l-34.5,5V39.4z M61.4,41.9H35.3v21.6
			L61.5,67L61.4,41.9L61.4,41.9z M63.9,41.9v25.6l34.5,4.7V41.9H63.9z"/>
		<g>
			<g>
				<path class="st1" d="M65.2,84.4c0,0.8-0.2,1.4-0.8,1.8c-0.5,0.5-1.3,0.6-2.3,0.6c-0.3,0-0.8-0.1-1.2-0.2
					c-0.5-0.1-0.8-0.2-0.9-0.3v-1.2c0.2,0.2,0.6,0.5,1,0.6c0.5,0.2,0.8,0.2,1.2,0.2c1.2,0,1.7-0.5,1.7-1.4c0-0.4-0.2-0.7-0.4-1
					s-0.7-0.5-1.5-1s-1.3-0.9-1.6-1.2c-0.3-0.4-0.5-0.9-0.5-1.4c0-0.7,0.2-1.3,0.8-1.7c0.5-0.5,1.2-0.7,2.1-0.7
					c0.8,0,1.4,0.1,1.8,0.3V79c-0.5-0.4-1.1-0.5-1.9-0.5c-0.5,0-0.9,0.2-1.2,0.4s-0.5,0.6-0.5,1c0,0.3,0.1,0.5,0.2,0.8
					s0.2,0.3,0.5,0.5c0.2,0.2,0.6,0.4,1.2,0.7c0.8,0.5,1.4,0.9,1.7,1.3C65.1,83.4,65.2,84,65.2,84.4L65.2,84.4z M71.8,83.7h-4.6
					c0,0.8,0.2,1.3,0.6,1.7c0.3,0.4,0.9,0.6,1.6,0.6c0.8,0,1.4-0.2,2-0.7v1c-0.5,0.4-1.3,0.6-2.3,0.6c-0.9,0-1.6-0.3-2.2-0.9
					c-0.5-0.6-0.8-1.5-0.8-2.5c0-0.6,0.2-1.2,0.4-1.7c0.2-0.5,0.6-0.9,1.1-1.2s0.9-0.5,1.6-0.5c0.9,0,1.5,0.3,2,0.9
					c0.5,0.5,0.7,1.3,0.7,2.3L71.8,83.7L71.8,83.7z M70.8,82.9c0-0.6-0.2-1.1-0.5-1.4S69.6,81,69.1,81s-0.9,0.2-1.2,0.5
					c-0.3,0.3-0.5,0.8-0.6,1.4H70.8L70.8,82.9z M76.4,81.2C76.2,81,75.9,81,75.6,81c-0.5,0-0.9,0.2-1.2,0.6c-0.3,0.5-0.5,1-0.5,1.7
					v3.3h-1v-6.5h1v1.3H74c0.2-0.5,0.3-0.8,0.6-1s0.6-0.4,1-0.4c0.2,0,0.5,0.1,0.6,0.1L76.4,81.2L76.4,81.2z M82.9,80.2l-2.6,6.5h-1
					l-2.5-6.5H78l1.6,4.7c0.1,0.2,0.2,0.5,0.2,0.9h0.1c0.1-0.3,0.1-0.6,0.2-0.9l1.7-4.7H82.9L82.9,80.2L82.9,80.2L82.9,80.2z
					 M88.8,83.7h-4.6c0,0.8,0.2,1.3,0.6,1.7c0.3,0.4,0.9,0.6,1.6,0.6c0.8,0,1.4-0.2,2-0.7v1c-0.5,0.4-1.3,0.6-2.3,0.6
					s-1.6-0.3-2.2-0.9c-0.5-0.6-0.8-1.5-0.8-2.5c0-0.6,0.2-1.2,0.4-1.7c0.2-0.5,0.6-0.9,1.1-1.2c0.5-0.3,0.9-0.5,1.6-0.5
					c0.9,0,1.5,0.3,2,0.9c0.5,0.5,0.7,1.3,0.7,2.3L88.8,83.7L88.8,83.7L88.8,83.7L88.8,83.7L88.8,83.7z M87.7,82.9
					c0-0.6-0.2-1.1-0.5-1.4S86.6,81,86.1,81s-0.9,0.2-1.2,0.5c-0.3,0.3-0.5,0.8-0.6,1.4H87.7L87.7,82.9z M93.4,81.2
					C93.2,81,92.9,81,92.6,81c-0.5,0-0.9,0.2-1.2,0.6c-0.3,0.5-0.5,1-0.5,1.7v3.3h-1.1v-6.5h1v1.3H91c0.2-0.5,0.3-0.8,0.6-1
					s0.6-0.4,1-0.4c0.2,0,0.5,0.1,0.6,0.1L93.4,81.2L93.4,81.2L93.4,81.2z"/>
			</g>
			<g>
				<path class="st1" d="M18.8,77.7l-2.6,9.1H15l-1.9-6.7c-0.1-0.2-0.1-0.5-0.2-0.9h-0.1l-0.2,0.9l-1.9,6.7H9.6L7,77.7h1.2l1.9,7
					c0.1,0.3,0.2,0.6,0.2,0.9h0.1c0-0.2,0.1-0.5,0.2-0.9l2-7h1l1.9,7.1c0.1,0.2,0.1,0.5,0.2,0.9c0-0.2,0.1-0.5,0.2-0.9l1.9-7
					L18.8,77.7L18.8,77.7z M20.9,78c0,0.2-0.1,0.3-0.2,0.5s-0.3,0.2-0.5,0.2s-0.3-0.1-0.5-0.2c-0.2-0.2-0.2-0.3-0.2-0.5
					s0.1-0.3,0.2-0.5s0.3-0.2,0.5-0.2s0.3,0.1,0.5,0.2C20.9,77.7,20.9,77.9,20.9,78z M20.8,86.8h-1v-6.5h1V86.8z M27.7,86.8h-1V83
					c0-1.4-0.5-2.1-1.5-2.1c-0.5,0-0.9,0.2-1.3,0.6c-0.3,0.4-0.5,0.9-0.5,1.5v3.7h-1v-6.5h1v1.1h0.1c0.5-0.9,1.2-1.2,2.1-1.2
					c0.7,0,1.2,0.2,1.6,0.7s0.5,1.2,0.5,2L27.7,86.8L27.7,86.8L27.7,86.8z M35,86.8h-1v-1.1h-0.2c-0.5,0.9-1.2,1.2-2.3,1.2
					c-0.9,0-1.5-0.3-2-0.9s-0.8-1.4-0.8-2.4c0-1.1,0.2-1.9,0.8-2.6s1.2-1,2.2-1s1.6,0.3,1.9,1h0.2v-4h1L35,86.8L35,86.8z M33.9,83.8
					v-0.9c0-0.5-0.2-1-0.5-1.3s-0.8-0.5-1.3-0.5c-0.6,0-1.2,0.2-1.5,0.7s-0.6,1-0.6,1.9c0,0.8,0.2,1.3,0.5,1.8s0.8,0.6,1.4,0.6
					s1-0.2,1.4-0.6C33.8,85,33.9,84.4,33.9,83.8L33.9,83.8z M42.7,83.4c0,1-0.3,1.9-0.9,2.5c-0.6,0.6-1.4,0.9-2.4,0.9
					c-0.9,0-1.7-0.3-2.3-0.9s-0.9-1.5-0.9-2.4c0-1.1,0.3-1.9,0.9-2.6s1.4-0.9,2.4-0.9c0.9,0,1.7,0.3,2.3,0.9
					C42.4,81.6,42.7,82.4,42.7,83.4L42.7,83.4z M41.6,83.5c0-0.8-0.2-1.5-0.5-1.9c-0.3-0.5-0.9-0.6-1.6-0.6s-1.2,0.2-1.6,0.6
					c-0.4,0.5-0.6,1.1-0.6,1.9s0.2,1.4,0.6,1.9s0.9,0.6,1.6,0.6c0.7,0,1.2-0.2,1.6-0.6S41.6,84.3,41.6,83.5L41.6,83.5z M52.2,80.2
					l-1.9,6.5h-1.1L47.9,82c-0.1-0.2-0.1-0.3-0.1-0.6h-0.1c0,0.2-0.1,0.3-0.2,0.6L46,86.7h-1l-2-6.5h1.1l1.3,4.9
					c0.1,0.2,0.1,0.3,0.1,0.6h0.1c0-0.2,0.1-0.3,0.1-0.6l1.5-4.9h0.9l1.3,4.9c0.1,0.2,0.1,0.3,0.1,0.6h0.1c0-0.2,0.1-0.4,0.1-0.6
					l1.3-4.9H52.2L52.2,80.2L52.2,80.2L52.2,80.2z M56.7,85c0,0.5-0.2,1-0.6,1.4c-0.5,0.3-1,0.5-1.7,0.5c-0.6,0-1.2-0.2-1.6-0.4
					v-1.2c0.5,0.4,1.1,0.6,1.7,0.6c0.9,0,1.2-0.3,1.2-0.9c0-0.2-0.1-0.5-0.2-0.6c-0.2-0.2-0.5-0.3-1.1-0.6c-0.6-0.2-1-0.5-1.2-0.8
					s-0.3-0.6-0.3-1.2s0.2-1,0.6-1.3c0.5-0.3,1-0.5,1.6-0.5c0.5,0,1,0.1,1.4,0.3v1C56,81,55.6,80.9,55,80.9c-0.3,0-0.6,0.1-0.9,0.2
					c-0.2,0.2-0.3,0.4-0.3,0.6c0,0.3,0.1,0.5,0.2,0.6c0.2,0.2,0.5,0.3,1,0.5c0.6,0.2,1,0.5,1.3,0.9C56.5,84.2,56.7,84.5,56.7,85
					L56.7,85z"/>
			</g>
		</g>
	</g>
</g>
<g id="Layer_2">
	<path class="st2" d="M97.3,86.7V86l0.9-0.9c2.2-2.2,3.2-3.2,3.2-4.6c0-0.9-0.5-1.7-1.8-1.7c-0.8,0-1.5,0.4-1.8,0.8l-0.4-0.8
		c0.6-0.5,1.5-0.9,2.5-0.9c1.9,0,2.7,1.3,2.7,2.5c0,1.6-1.2,2.9-3,4.7l-0.7,0.6l0,0h3.9v1L97.3,86.7L97.3,86.7z"/>
	<path class="st2" d="M110,82.2c0,3-1.1,4.6-3.1,4.6c-1.7,0-2.8-1.6-2.9-4.5c0-2.9,1.2-4.5,3.1-4.5C108.9,77.8,110,79.4,110,82.2
		 M105.3,82.3c0,2.3,0.7,3.5,1.8,3.5c1.2,0,1.8-1.4,1.8-3.7c0-2.2-0.5-3.5-1.8-3.5C106,78.7,105.3,79.9,105.3,82.3"/>
	<g>
		<path class="st2" d="M113.2,78.9L113.2,78.9l-1.5,0.8l-0.2-0.9l1.9-1h1v8.8h-1.2V78.9z"/>
		<path class="st2" d="M117.9,85.8c0.2,0,0.5,0,0.9-0.1c0.7-0.1,1.3-0.4,1.8-0.8c0.6-0.5,1-1.3,1.2-2.3h-0.1
			c-0.5,0.6-1.2,0.9-2.1,0.9c-1.5,0-2.6-1.2-2.6-2.7c0-1.6,1.2-3.1,3-3.1c1.8,0,2.9,1.5,2.9,3.7c0,1.9-0.6,3.2-1.5,4.1
			c-0.7,0.7-1.6,1.1-2.5,1.2c-0.5,0.1-0.8,0.1-1.1,0.1L117.9,85.8L117.9,85.8z M118.2,80.8c0,1.1,0.7,1.8,1.7,1.8
			c0.8,0,1.4-0.4,1.7-0.9c0.1-0.1,0.1-0.2,0.1-0.5c0-1.5-0.5-2.6-1.8-2.6C119,78.6,118.2,79.5,118.2,80.8z"/>
	</g>
</g>
</svg>
